<svg width="22" height="22" viewBox="0 0 22 22" fill="none" xmlns="http://www.w3.org/2000/svg">
<path fill-rule="evenodd" clip-rule="evenodd" d="M3.92912 3.92879C4.31965 3.53826 4.95281 3.53826 5.34334 3.92879L11.7073 10.2927L18.0713 16.6567C18.4618 17.0472 18.4618 17.6804 18.0713 18.0709V18.0709C17.6807 18.4614 17.0476 18.4614 16.657 18.0709L3.92912 5.343C3.5386 4.95248 3.5386 4.31931 3.92912 3.92879V3.92879Z" fill="white"/>
<path fill-rule="evenodd" clip-rule="evenodd" d="M3.92879 18.0709C3.53826 17.6804 3.53826 17.0472 3.92879 16.6567L10.2927 10.2927L16.6567 3.92874C17.0472 3.53821 17.6804 3.53822 18.0709 3.92874V3.92874C18.4614 4.31926 18.4614 4.95243 18.0709 5.34295L5.343 18.0709C4.95248 18.4614 4.31931 18.4614 3.92879 18.0709V18.0709Z" fill="white"/>
</svg>
