<svg width="43" height="60" viewBox="0 0 43 60" fill="none" xmlns="http://www.w3.org/2000/svg">
<path fill-rule="evenodd" clip-rule="evenodd" d="M36.7158 53.5921C39.456 53.5921 41.6481 51.262 41.6481 48.3494V12.8154H1.09375V48.1164C1.09375 50.9125 3.28588 53.5921 6.02604 53.5921H16.9867C19.7268 53.5921 21.919 55.9222 21.919 58.8348C21.919 55.9222 24.1111 53.5921 26.8513 53.5921H36.7158Z" fill="#257ACF"/>
<g opacity="0.5">
<path opacity="0.5" fill-rule="evenodd" clip-rule="evenodd" d="M41.6504 12.8156V48.3495C41.6504 51.2621 39.4583 53.5922 36.7181 53.5922H26.8536C24.1134 53.5922 21.9213 55.9223 21.9213 58.8349C21.9213 55.9223 19.7292 53.5922 16.989 53.5922H6.02835C3.28819 53.5922 1.09606 50.9126 1.09606 48.1165V12.8156H41.6504ZM41.6504 11.6505H1.09606C0.438426 11.6505 0 12.1165 0 12.8156V48.1165C0 51.7281 2.74016 54.7573 6.02835 54.7573H16.989C19.0715 54.7573 20.8252 56.6213 20.8252 58.8349C20.8252 59.534 21.2636 60 21.9213 60C22.5789 60 23.0173 59.534 23.0173 58.8349C23.0173 56.6213 24.771 54.7573 26.8536 54.7573H36.7181C40.0063 54.7573 42.7465 51.8446 42.7465 48.3495V12.8156C42.7465 12.1165 42.3081 11.6505 41.6504 11.6505Z" fill="white"/>
</g>
<path d="M41.6504 0H0V16.3107H41.6504V0Z" fill="#F84034"/>
<path fill-rule="evenodd" clip-rule="evenodd" d="M39.4583 9.32021V5.82507H37.2662V9.32021H32.8819V5.82507H30.6898V9.32021H26.3055V5.82507H24.1134V9.32021H18.6331V5.82507H16.441V9.32021H12.0567V5.82507H9.86458V9.32021H5.48032V5.82507H3.28819V9.32021H0V15.1454H42.7465V9.32021H39.4583Z" fill="white"/>
<path fill-rule="evenodd" clip-rule="evenodd" d="M34.5233 45.0875C35.0713 43.6894 35.729 43.1069 35.4002 40.7768C35.1809 39.0292 34.5233 38.0972 34.4137 37.2817C34.8521 37.2817 35.1809 37.3982 35.4002 37.6312C35.2906 37.1652 34.1945 35.3011 33.208 34.6021C33.4272 35.3011 32.9888 37.6312 33.208 38.3302C33.5368 37.8642 33.7561 37.5147 33.9753 37.3982C34.0849 37.7477 34.8521 40.5438 33.9753 41.7089C33.0984 42.9904 31.6735 43.1069 30.0294 41.9419C29.043 41.2428 21.3705 34.6021 16.219 30.2914C16.9863 29.3594 19.0688 24.8157 19.1784 24.5827L18.4112 24.1166L14.2461 28.6603C13.3693 27.8448 12.602 27.2623 12.1636 26.7963C12.7116 25.7477 12.4924 24.4662 11.6156 23.7671L11.506 23.6506C11.506 22.6021 11.0675 21.5535 10.1907 20.8545C8.6562 19.4565 6.46407 19.6895 5.14879 21.3205C3.83351 22.9516 4.05273 25.2817 5.58722 26.6797C6.35446 27.3788 7.45053 27.7283 8.43698 27.4953L8.54659 27.6118C9.42344 28.4273 10.6291 28.4273 11.506 27.7283C11.9444 28.0778 12.602 28.7768 13.4789 29.5924L9.42344 34.1361L9.86187 34.8351C10.0811 34.7186 14.4653 32.272 15.3422 31.3399C20.2745 36.0001 27.7277 43.1069 28.495 43.9224C29.9198 45.437 30.0294 46.9516 28.9334 48.0001C27.9469 49.0487 25.2068 48.8156 24.8779 48.6991C24.8779 48.3496 25.2068 48.1166 25.5356 47.7671C24.8779 47.6506 22.7954 48.5826 22.0282 48.4661C22.905 49.3982 24.7683 50.2137 25.2068 50.3302C24.9875 50.0972 24.7683 49.8642 24.6587 49.2817C25.426 49.3982 26.4124 49.8642 28.1661 49.7477C30.3583 49.6312 30.9063 48.9321 32.0024 48.1166C32.8792 47.5341 33.6465 47.5341 34.4137 47.8836C34.3041 46.9516 34.0849 46.136 34.5233 45.0875ZM8.32738 24.0001C7.88895 24.5827 7.66974 25.2817 7.77935 25.9807C7.34092 25.9807 6.90249 25.7477 6.57368 25.3982C5.69682 24.5827 5.47761 23.0681 6.35446 22.1361C7.12171 21.204 8.54659 21.0875 9.42344 21.9031C9.75226 22.2526 10.0811 22.7186 10.0811 23.1846C9.42344 23.1846 8.87541 23.5341 8.32738 24.0001ZM9.09462 24.6992C9.42344 24.3497 9.75226 24.1166 10.1907 24.1166C10.0811 24.4662 9.97147 24.9322 9.75226 25.1652C9.53305 25.5147 9.20423 25.7477 8.7658 25.8642C8.6562 25.5147 8.7658 25.0487 9.09462 24.6992ZM11.2868 26.6797C10.6291 27.4953 9.53305 27.1458 9.64265 27.1458C10.0811 26.9128 10.4099 26.5632 10.7387 26.2137C11.0675 25.8642 11.2867 25.3982 11.3964 24.9322C11.7252 25.3982 11.7252 26.0972 11.2868 26.6797Z" fill="white"/>
<path fill-rule="evenodd" clip-rule="evenodd" d="M2.19213 8.15515H0V9.3202H7.67245V11.6503H0V12.8153H4.38426V15.1454H0V16.3105H42.7465V15.1454H38.3622V12.8153H42.7465V11.6503H35.074V9.3202H42.7465V8.15515H40.5544H2.19213ZM8.76851 8.15515H6.57638H8.76851ZM15.3449 8.15515H13.1528H15.3449ZM23.0173 8.15515H19.7292H23.0173ZM29.5937 8.15515H27.4016H29.5937ZM36.1701 8.15515H33.978H36.1701ZM39.4583 8.15515H37.2662H39.4583ZM5.48032 8.15515H3.28819H5.48032ZM32.8819 8.15515H30.6898H32.8819ZM33.978 9.3202V11.6503H26.3055V9.3202H33.978ZM26.3055 8.15515H24.1134H26.3055ZM25.2095 9.3202V11.6503H17.537V9.3202H25.2095ZM18.6331 8.15515H16.441H18.6331ZM12.0567 8.15515H9.86458H12.0567ZM8.76851 9.3202H16.441V11.6503H8.76851V9.3202ZM12.0567 15.1454H5.48032V12.8153H12.0567V15.1454ZM20.8252 15.1454H13.1528V12.8153H20.8252V15.1454ZM29.5937 15.1454H21.9213V12.8153H29.5937V15.1454ZM37.2662 12.8153V15.1454H30.6898V12.8153H37.2662Z" fill="#8A8A8A"/>
<path fill-rule="evenodd" clip-rule="evenodd" d="M36.6073 20.9709C35.5112 19.6894 33.6479 19.5728 32.4423 20.7379C32.223 20.9709 32.0038 21.3204 31.7846 21.5534C31.5654 21.2039 31.2366 20.8544 30.7982 20.6214C29.3733 19.8059 27.51 20.3884 26.7427 21.9029C25.9755 23.4175 26.5235 25.3981 27.9484 26.2136C28.4964 26.5631 29.0445 26.6796 29.7021 26.5631L29.1541 27.0292L28.3868 27.2622V27.7282L28.058 27.9612C27.8388 27.8447 27.6196 27.8447 27.4004 27.9612V28.8932L11.5074 44.2718L10.8498 43.4563L11.9459 42.4078L11.8363 42.1748H11.2882L11.1786 41.4757L9.97294 40.0777L9.2057 40.7767L10.3018 42.0583L9.53452 42.7573L8.43845 41.4757L7.67121 42.1748L8.76727 43.5728L8.00003 44.2718L6.90396 42.9903L6.13672 43.6893L7.34239 45.0874L8.00003 45.3204V45.9029L8.21924 46.0194L9.3153 44.9709L9.97294 45.6699L8.87688 46.7184L9.09609 46.9515L8.76727 47.301C8.43845 47.068 8.00003 47.1845 7.67121 47.4175C7.23278 47.767 7.23278 48.466 7.5616 48.8155C7.89042 49.2816 8.54806 49.2815 8.87688 48.932C9.2057 48.5825 9.2057 48.233 9.09609 47.767L9.42491 47.4175L9.64412 47.6505L28.058 29.9418C28.2772 30.0583 28.4964 30.0583 28.7156 29.9418C28.8252 29.8253 28.9348 29.5923 28.8252 29.2427L29.1541 29.0097L29.5925 29.1262L29.9213 28.3107L30.4693 27.8447C30.3597 28.4272 30.3597 29.1262 30.6886 29.7088C31.3462 31.3398 33.0999 32.1554 34.6344 31.4563C36.1689 30.7573 36.8265 28.8932 36.2785 27.2622C36.0593 26.7961 35.8401 26.4466 35.5112 26.0971C35.8401 25.9806 36.1689 25.7476 36.3881 25.5146C37.5938 24.3495 37.7034 22.2525 36.6073 20.9709ZM34.0863 25.2816L33.8671 26.2136C33.9767 26.2136 34.0863 26.3301 34.3056 26.3301C34.8536 26.5631 35.1824 27.0292 35.4016 27.4952C35.6208 28.0777 35.6208 28.6602 35.4016 29.1262C35.1824 29.7088 34.744 30.0583 34.3056 30.2913C33.7575 30.5243 33.2095 30.5243 32.7711 30.2913C32.223 30.0583 31.8942 29.5923 31.675 29.1262C31.4558 28.5437 31.4558 27.9612 31.675 27.4952C31.675 27.3787 31.7846 27.3787 31.7846 27.2622L31.2366 26.6796L31.8942 26.0971C32.223 26.3301 32.6615 26.2136 32.9903 25.9806C33.4287 25.6311 33.4287 24.9321 33.0999 24.466C32.7711 24 32.1134 24 31.675 24.3495C31.3462 24.6991 31.2366 25.1651 31.4558 25.5146L30.7982 26.0971L30.2501 25.5146C30.1405 25.5146 30.0309 25.6311 30.0309 25.6311C29.4829 25.7476 28.9348 25.7476 28.4964 25.5146C28.058 25.2816 27.6196 24.8156 27.51 24.233C27.4004 23.6505 27.4004 23.068 27.6196 22.602C27.8388 22.136 28.2772 21.6699 28.8252 21.5534C29.3733 21.3204 29.9213 21.4369 30.3597 21.6699C30.7982 21.9029 31.2366 22.369 31.3462 22.9515C31.3462 23.068 31.4558 23.1845 31.4558 23.4175L32.3326 23.301C32.3326 22.7185 32.5519 22.0194 32.9903 21.5534C33.8671 20.7379 35.0728 20.8544 35.8401 21.6699C36.6073 22.602 36.4977 23.8835 35.7304 24.6991C35.292 25.1651 34.6344 25.3981 34.0863 25.2816Z" fill="#FFA000"/>
<path fill-rule="evenodd" clip-rule="evenodd" d="M6.57566 8.15542V4.66028H5.4796H3.28747H2.19141V8.15542H3.28747V5.82533H5.4796V8.15542H6.57566Z" fill="#AAAAAA"/>
<path fill-rule="evenodd" clip-rule="evenodd" d="M13.1538 8.15542V4.66028H12.0577H9.8656H8.76953V8.15542H9.8656V5.82533H12.0577V8.15542H13.1538Z" fill="#AAAAAA"/>
<path fill-rule="evenodd" clip-rule="evenodd" d="M19.728 8.15542V4.66028H18.6319H16.4398H15.3438V8.15542H16.4398V5.82533H18.6319V8.15542H19.728Z" fill="#AAAAAA"/>
<path fill-rule="evenodd" clip-rule="evenodd" d="M27.3999 8.15542V4.66028H26.3038H24.1117H23.0156V8.15542H24.1117V5.82533H26.3038V8.15542H27.3999Z" fill="#AAAAAA"/>
<path fill-rule="evenodd" clip-rule="evenodd" d="M33.978 8.15542V4.66028H32.8819H30.6898H29.5938V8.15542H30.6898V5.82533H32.8819V8.15542H33.978Z" fill="#AAAAAA"/>
<path fill-rule="evenodd" clip-rule="evenodd" d="M40.5522 8.15542V4.66028H39.4562H37.264H36.168V8.15542H37.264V5.82533H39.4562V8.15542H40.5522Z" fill="#AAAAAA"/>
<path d="M41.6504 8.15527H0V9.32032H41.6504V8.15527Z" fill="#AAAAAA"/>
</svg>
