<svg width="52" height="64" viewBox="0 0 52 64" fill="none" xmlns="http://www.w3.org/2000/svg">
<path d="M14.867 42.0558C13.5942 42.0558 12.5586 43.0913 12.5586 44.3641V51.876C12.5586 53.1489 13.5942 54.1843 14.867 54.1843H37.1332C38.4061 54.1843 39.4416 53.1487 39.4416 51.876V44.3641C39.4416 43.0912 38.4061 42.0558 37.1332 42.0558H14.867ZM37.5661 44.3642V51.8761C37.5661 52.1148 37.3719 52.3089 37.1332 52.3089H14.867C14.6283 52.3089 14.4342 52.1147 14.4342 51.8761V44.3642C14.4342 44.1255 14.6283 43.9315 14.867 43.9315H37.1332C37.3719 43.9313 37.5661 44.1255 37.5661 44.3642Z" fill="white"/>
<path d="M47.1163 57.8731H46.5705V54.4079C46.5705 53.89 46.1507 53.4701 45.6327 53.4701C45.1147 53.4701 44.6949 53.89 44.6949 54.4079V57.8731H7.30874V37.3598C7.30874 36.7433 7.81039 36.2418 8.42682 36.2418H43.5767C44.1933 36.2418 44.6948 36.7434 44.6948 37.3598V50.0346C44.6948 50.5525 45.1145 50.9724 45.6326 50.9724C46.1506 50.9724 46.5703 50.5525 46.5703 50.0346V37.3598C46.5703 35.7091 45.2274 34.3662 43.5767 34.3662H35.1639C37.0119 32.8491 38.1928 30.5483 38.1928 27.9764V18.686C38.1928 17.6797 37.3741 16.861 36.3678 16.861H26.9395V14.8311C26.9395 14.6378 27.0968 14.4805 27.2902 14.4805H44.3306C45.558 14.4805 46.5568 13.4818 46.5568 12.2543V10.7094C47.7256 10.321 48.5711 9.21805 48.5711 7.92066V2.91917C48.424 -0.972369 42.8419 -0.973744 42.6943 2.91917V7.92066C42.6943 9.20792 43.5267 10.3038 44.6813 10.7001V12.2542C44.6813 12.4475 44.524 12.6048 44.3306 12.6048H27.2902C26.0627 12.6048 25.0639 13.6035 25.0639 14.831V16.8608H22.4024C21.8843 16.8608 21.4646 17.2807 21.4646 17.7986C21.4646 18.3165 21.8843 18.7364 22.4024 18.7364H36.3173V27.9763C36.3173 31.4996 33.4508 34.3661 29.9274 34.3661H22.0759C18.5525 34.3661 15.686 31.4996 15.686 27.9763V18.7364H17.9881C18.5061 18.7364 18.9258 18.3165 18.9258 17.7986C18.9258 17.2807 18.5061 16.8608 17.9881 16.8608H15.6355C14.6292 16.8608 13.8104 17.6796 13.8104 18.6859V27.9763C13.8104 30.5482 14.9915 32.849 16.8393 34.3661H8.42657C6.77583 34.3661 5.43293 35.7091 5.43293 37.3597V57.8731H4.88714C1.03911 57.7673 -0.821441 63.6288 3.10286 64C3.10286 63.9999 48.9003 63.9999 48.9003 63.9999C52.8251 63.6283 50.9637 57.7668 47.1163 57.8731ZM44.5699 2.91917C44.5699 2.33312 45.0466 1.85635 45.6327 1.85635C46.2187 1.85635 46.6955 2.33312 46.6955 2.91917V7.92066C46.6462 9.32596 44.62 9.32821 44.5699 7.92066V2.91917ZM48.9005 62.1244H3.10311C2.94006 62.1244 2.80739 61.9917 2.80739 61.8286C2.80739 60.6818 3.74042 59.7487 4.88739 59.7487H47.1163C48.2632 59.7487 49.1963 60.6817 49.1963 61.8286C49.1963 61.9917 49.0635 62.1244 48.9005 62.1244Z" fill="white"/>
<path d="M26.0009 45.1819C24.3806 45.1819 23.0625 46.5 23.0625 48.1203C23.2102 52.0131 28.7921 52.0121 28.9393 48.1203C28.9393 46.5 27.6211 45.1819 26.0009 45.1819ZM26.0009 49.1831C25.4148 49.1831 24.9381 48.7063 24.9381 48.1203C24.988 46.7136 27.0139 46.714 27.0637 48.1203C27.0637 48.7063 26.5868 49.1831 26.0009 49.1831Z" fill="white"/>
</svg>
