<svg width="136" height="24" viewBox="0 0 136 24" fill="none" xmlns="http://www.w3.org/2000/svg">
<path d="M58.3184 9.22066H56.4918L51.5653 23.2711C51.4336 23.6312 51.3106 23.7454 51.0647 23.7454H46.7618C46.5159 23.7454 46.3929 23.6312 46.2612 23.2711L41.3348 9.22066H39.4907C39.2536 9.21183 39.0779 9.02742 39.0779 8.8079V6.38418C39.0779 6.15586 39.2624 5.96268 39.4995 5.96268H46.7355C46.9726 5.97147 47.1482 6.15586 47.1482 6.38418V8.8079C47.1482 9.02742 46.9725 9.20307 46.7618 9.22066C46.7442 9.22066 46.7355 9.22943 46.7179 9.22943H45.5324C45.8749 10.2569 48.7728 19.3018 48.7991 19.3633C48.8079 19.3984 48.8518 19.4511 48.9133 19.4511C48.9748 19.4511 49.0186 19.3984 49.0275 19.3633C49.045 19.3018 51.9517 10.2569 52.2941 9.22943H51.1087C51.0911 9.22943 51.0823 9.22943 51.0647 9.22066C50.8452 9.20307 50.6784 9.01866 50.6784 8.8079V6.38418C50.6872 6.14708 50.8716 5.97144 51.0911 5.97144H51.0999H58.3271C58.5642 5.98023 58.7398 6.16465 58.7398 6.39297V6.41053V8.8079C58.7398 9.04502 58.5554 9.22943 58.3271 9.22943L58.3184 9.22066ZM20.8299 1.26455H20.8211H18.415C18.1954 1.26455 18.011 1.44016 18.0022 1.6597C18.0022 1.66848 18.0022 1.67727 18.0022 1.69483C18.0286 2.1866 18.0988 3.42481 18.0988 3.48628C18.0988 3.53019 18.0988 3.60043 18.011 3.60921C17.9671 3.60921 17.9231 3.58288 17.8529 3.52141C16.1932 1.94952 13.9452 1.04501 11.3985 1.04501C4.68939 1.04501 0 5.77827 0 12.5225C0 19.0208 4.67179 24 11.3634 24C11.6619 24 11.9693 23.9912 12.2503 23.9736L12.3118 23.9649C16.685 23.6839 19.3809 21.3216 20.742 19.3721C20.9089 19.135 21.0142 18.9681 21.1284 18.7837L21.1372 18.7662C21.1811 18.6959 21.2777 18.5203 21.3217 18.4061C21.3831 18.2568 21.3392 18.0373 21.1548 17.9144L18.8803 16.4127C18.6959 16.2898 18.4676 16.3337 18.3271 16.5181C18.3271 16.5269 17.9495 16.9835 17.6246 17.3612C16.6147 18.5378 14.9111 19.9165 11.9342 20.1098C11.82 20.1185 11.6883 20.1185 11.5565 20.1185H11.4072C7.27114 20.1185 4.14493 16.8254 4.14493 12.5576C4.14493 7.20967 7.92979 4.46102 11.5039 4.46102C11.9693 4.46102 12.3996 4.46981 12.7948 4.52249C13.9891 4.68056 15.0868 5.22501 15.7102 5.77825C15.8156 5.87485 15.8595 5.97145 15.7893 6.03292C15.7629 6.05927 15.6751 6.05048 15.6224 6.05048H15.596C15.5346 6.05048 14.1822 5.99779 13.5061 5.97144C13.4885 5.97144 13.427 5.97146 13.4095 5.98023C13.2075 6.01536 13.0669 6.17343 13.0582 6.38418V8.79914C13.0582 8.81666 13.0582 8.82549 13.0669 8.84301C13.0845 9.04502 13.2426 9.20307 13.4358 9.22066C13.4533 9.22066 13.4709 9.22943 13.4885 9.22943H20.8562C21.0845 9.22943 21.269 9.05378 21.269 8.81666V1.68604C21.2426 1.45773 21.0582 1.27333 20.8299 1.26455ZM33.9671 18.3623C34.1164 18.213 34.2481 18.0549 34.3798 17.8968V15.5784H32.3337C28.6191 15.5784 26.652 16.5357 26.652 18.3447C26.652 19.5477 27.8288 20.3908 29.506 20.3908C31.5697 20.3908 33.0714 19.2843 33.9671 18.3623ZM40.6937 20.9001V23.2975C40.6937 23.3062 40.6937 23.3062 40.6937 23.315C40.6937 23.5258 40.5357 23.7014 40.3249 23.7278C40.3073 23.7365 40.281 23.7365 40.2634 23.7365H36.4259C35.1965 23.7365 34.9682 23.0428 34.9155 22.2964C34.9155 22.2612 34.854 21.3918 34.854 21.2865C34.8452 21.1987 34.8365 21.1548 34.8189 21.1372C34.7487 21.0845 34.652 21.1284 34.5818 21.2075C32.9132 23.1394 30.9023 23.9912 28.6718 23.9912C24.8255 23.9912 22.5335 21.8661 22.5335 18.7135C22.5335 15.0077 26.1339 12.4435 32.1668 12.4435H34.3798C34.3535 10.2657 33.0889 9.17672 30.6213 9.17672C28.4171 9.17672 27.1965 9.98466 26.5467 10.4061C26.4501 10.4676 25.8529 10.8979 25.8529 10.8979C25.8178 10.9242 25.7826 10.9418 25.7299 10.9594C25.5806 11.0121 25.4138 10.9769 25.3085 10.8628L23.3677 9.08013C23.236 8.91324 23.2448 8.68496 23.3853 8.53566C23.3853 8.53566 23.438 8.48302 23.4995 8.43031C23.5785 8.36001 23.8419 8.13173 24.0264 7.99119L24.0439 7.97367C24.9396 7.29743 27.3897 5.7168 30.7179 5.7168C35.8902 5.7168 38.4018 8.12296 38.4018 13.0669V20.4961H40.2547C40.2635 20.4961 40.2722 20.4961 40.281 20.4961C40.5093 20.4786 40.6937 20.6718 40.6937 20.9001ZM96.7465 20.4874H96.7374H94.8323V6.38418C94.8323 6.15586 94.6563 5.97144 94.4194 5.97144H91.2576C91.0298 5.97144 90.8455 6.15587 90.8455 6.39297V21.7168C90.8455 23.0691 91.5387 23.7541 92.909 23.7541H96.7374C96.7549 23.7541 96.7731 23.7541 96.7906 23.7454C97.01 23.7278 97.1677 23.5434 97.1677 23.3238V20.9177C97.1593 20.6805 96.975 20.4961 96.7465 20.4874ZM134.84 20.4874C134.823 20.4874 134.805 20.4786 134.797 20.4786H132.891V11.8112C132.891 7.94732 130.731 5.55873 127.008 5.74314C124.724 5.85731 123.083 6.91985 121.756 8.63225C121.739 8.64984 121.66 8.76395 121.528 8.71131C121.484 8.69372 121.466 8.61473 121.466 8.57954L121.431 6.98132C121.414 6.36661 121.01 5.96268 120.413 5.96268H116.048C115.82 5.96268 115.635 6.14708 115.635 6.38418V8.8079C115.635 9.02742 115.811 9.21183 116.031 9.22066C116.04 9.22066 116.057 9.22943 116.066 9.22943H117.927V20.4961H116.048C115.82 20.4961 115.635 20.6894 115.635 20.9177V23.3414C115.635 23.5697 115.82 23.7629 116.048 23.7629H123.75C123.978 23.7541 124.154 23.5697 124.154 23.3589V20.9264C124.154 20.7245 124.013 20.5576 123.82 20.5137C123.793 20.5049 123.767 20.505 123.741 20.505H121.932V12.1888C122.283 11.5653 123.469 9.88801 125.462 9.59825C127.35 9.32601 128.887 10.1954 128.887 12.2063V21.7344C128.887 23.0779 129.581 23.7629 130.95 23.7629H134.779C135.008 23.7629 135.192 23.5785 135.192 23.3326V20.9264C135.21 20.6893 135.051 20.5137 134.84 20.4874ZM71.1834 12.7245C71.0692 10.6784 69.3743 9.15912 67.1262 9.15912C65.1416 9.15912 63.0165 10.4501 62.6827 12.7245H71.1834ZM75.3104 19.6355C75.2403 19.8024 75.1086 20.0044 75.0294 20.1273L75.0034 20.1713C74.9859 20.2064 72.7114 23.9824 67.3107 23.9824C62.068 23.9824 58.4061 20.0658 58.4061 14.7793C58.4061 9.01866 62.7179 5.70801 66.977 5.70801C69.6289 5.70801 71.4995 6.53347 72.9399 7.99995C74.3971 9.49283 75.2228 11.6707 75.267 14.3052C75.2754 14.4896 75.2754 14.9023 75.2494 15.2185C75.2494 15.2623 75.2403 15.3414 75.2144 15.5082C75.1786 15.7366 75.0118 15.877 74.7924 15.877H62.5423C62.7706 19.0384 65.247 20.3995 67.4775 20.3995C70.5246 20.3995 72.4304 18.1163 72.553 17.9671L72.5797 17.9319C72.7549 17.7211 72.975 17.6773 73.1768 17.809L75.1436 19.1174C75.3546 19.2491 75.3812 19.4775 75.3104 19.6355ZM101.278 14.8145C101.278 18.0548 103.359 20.3995 106.221 20.3995C109.085 20.3995 111.166 18.0548 111.166 14.8145C111.166 11.2141 108.68 9.30842 106.221 9.2909C103.763 9.31725 101.278 11.2141 101.278 14.8145ZM115.223 14.7793C115.223 20.1975 111.517 23.9824 106.221 23.9824C100.918 23.9824 97.2203 20.1975 97.2203 14.7793C97.2203 9.45771 100.918 5.72558 106.221 5.70801C111.526 5.72558 115.223 9.45771 115.223 14.7793ZM88.6853 5.91876C88.4392 5.89242 88.0523 5.88364 87.772 5.90121C84.9263 6.11196 83.4074 7.8419 82.6434 9.36989C82.5992 9.46648 82.5116 9.4929 82.4415 9.47531C82.4065 9.46655 82.3798 9.4226 82.3798 9.38748L82.3097 6.98132C82.2747 6.34905 81.8794 5.97144 81.2556 5.97144H76.8384C76.6106 5.97144 76.4256 6.15588 76.4256 6.40176V8.81666C76.4256 9.04502 76.6106 9.22943 76.8384 9.22943H78.7091V20.4961H76.8384C76.6106 20.4961 76.4256 20.6718 76.4256 20.9089V23.3326C76.4256 23.5346 76.5749 23.7102 76.7774 23.7454C76.8034 23.7541 76.83 23.7541 76.8559 23.7541H84.5225C84.5492 23.7541 84.5751 23.7541 84.6017 23.7454C84.7945 23.719 84.9354 23.5609 84.9529 23.3589C84.9529 23.3502 84.9529 23.3326 84.9529 23.3238V20.9264C84.9529 20.9001 84.9438 20.8738 84.9438 20.865C84.9178 20.6805 84.777 20.5401 84.6101 20.5137C84.5842 20.5049 84.5576 20.505 84.5309 20.505H82.7401V15.5697C82.7401 12.7245 84.2323 10.7925 86.9372 10.1251C87.5168 9.98466 88.2984 9.96707 88.6061 9.96707C88.8521 9.96707 89.0974 9.82654 89.0974 9.54554V6.37542C89.1065 6.11197 88.9572 5.9451 88.6853 5.91876ZM90.4761 2.39735C90.4761 1.07133 91.5387 0 92.8473 0C94.1559 0 95.2185 1.08012 95.2185 2.39735C95.2185 3.7058 94.1825 4.73324 92.8473 4.73324C91.5212 4.73324 90.4761 3.7058 90.4761 2.39735Z" fill="#22346A"/>
</svg>
