<svg width="127" height="37" viewBox="0 0 127 37" fill="none" xmlns="http://www.w3.org/2000/svg">
<path d="M60.9219 3.99997V32H64.0419V20.04H66.2419C68.8419 20.04 70.3219 21.04 70.3219 24.2V28.6C70.3219 30.48 70.4819 31.2 70.8419 32H74.0019C73.4819 31.04 73.4419 29.88 73.4419 28.64V24.28C73.4419 21.28 72.4819 19.2 69.9219 18.44C72.3219 17.68 73.4019 15.76 73.4019 12.68V10.4C73.4019 6.23997 71.5619 3.99997 67.1619 3.99997H60.9219ZM64.0419 17.2V6.83997H67.0819C69.4019 6.83997 70.3219 8.15997 70.3219 10.68V13.36C70.3219 16.4 68.8419 17.2 66.3619 17.2H64.0419Z" fill="white"/>
<path d="M82.5441 3.71997C78.3441 3.71997 76.3441 6.39997 76.3441 10.72C76.3441 18.6 85.7041 19.2 85.7041 25.44C85.7041 27.96 84.6641 29.44 82.4241 29.44C80.1841 29.44 79.1441 27.96 79.1441 25.44V23.68H76.2241V25.28C76.2241 29.52 78.2241 32.28 82.5041 32.28C86.7841 32.28 88.8241 29.52 88.8241 25.28C88.8241 17.4 79.4241 16.8 79.4241 10.52C79.4241 8.03997 80.3841 6.55997 82.6241 6.55997C84.8641 6.55997 85.8241 8.03997 85.8241 10.56V11.48H88.7841V10.72C88.7841 6.47997 86.7841 3.71997 82.5441 3.71997Z" fill="white"/>
<path d="M91.5469 3.99997V32H94.6669V3.99997H91.5469Z" fill="white"/>
<path d="M97.635 25.24C97.635 29.48 99.755 32.28 104.035 32.28C108.355 32.28 110.475 29.48 110.475 25.24V10.76C110.475 6.47997 108.355 3.71997 104.035 3.71997C99.755 3.71997 97.635 6.47997 97.635 10.76V25.24ZM100.715 10.6C100.715 8.07997 101.795 6.55997 104.035 6.55997C106.315 6.55997 107.355 8.07997 107.355 10.6V25.4C107.355 27.96 106.315 29.44 104.035 29.44C101.795 29.44 100.715 27.96 100.715 25.4V10.6Z" fill="white"/>
<path d="M113.422 3.99997V32H119.982C124.342 32 126.342 29.36 126.342 25.08V10.96C126.342 6.63997 124.342 3.99997 119.982 3.99997H113.422ZM116.542 29.16V6.83997H119.902C122.182 6.83997 123.262 8.23997 123.262 10.8V25.2C123.262 27.76 122.182 29.16 119.942 29.16H116.542Z" fill="white"/>
<mask id="path-2-inside-1_198:686" fill="white">
<path d="M49 0H50V37H49V0Z"/>
<path d="M2 0H4V37H2V0Z"/>
<path d="M8.74243e-08 35L0 33H38V35H8.74243e-08Z"/>
<path fill-rule="evenodd" clip-rule="evenodd" d="M34.2071 7.79289C34.5976 8.18342 34.5976 8.81658 34.2071 9.20711L24.0277 19.3865L17.4754 13.3382L7.65079 21.7593C7.23147 22.1187 6.60017 22.0701 6.24074 21.6508C5.88132 21.2315 5.92988 20.6002 6.34921 20.2407L17.5246 10.6618L23.9723 16.6135L32.7929 7.79289C33.1834 7.40237 33.8166 7.40237 34.2071 7.79289Z"/>
<path d="M6.45898 23.5879C6.45898 23.0356 6.9067 22.5879 7.45898 22.5879H10.459C11.0113 22.5879 11.459 23.0356 11.459 23.5879V31C11.459 31.5523 11.0113 32 10.459 32H7.45898C6.9067 32 6.45898 31.5523 6.45898 31V23.5879Z"/>
<path d="M22.2363 23.5879C22.2363 23.0356 22.684 22.5879 23.2363 22.5879H26.2363C26.7886 22.5879 27.2363 23.0356 27.2363 23.5879V31C27.2363 31.5523 26.7886 32 26.2363 32H23.2363C22.684 32 22.2363 31.5523 22.2363 31V23.5879Z"/>
<path d="M14.2363 17.3154C14.2363 16.7631 14.684 16.3154 15.2363 16.3154H18.2363C18.7886 16.3154 19.2363 16.7631 19.2363 17.3154V31C19.2363 31.5523 18.7886 32 18.2363 32H15.2363C14.684 32 14.2363 31.5523 14.2363 31V17.3154Z"/>
<path d="M30.2363 16C30.2363 15.4477 30.684 15 31.2363 15H34.2363C34.7886 15 35.2363 15.4477 35.2363 16V31C35.2363 31.5523 34.7886 32 34.2363 32H31.2363C30.684 32 30.2363 31.5523 30.2363 31V16Z"/>
</mask>
<path d="M49 0H50V37H49V0Z" fill="white"/>
<path d="M2 0H4V37H2V0Z" fill="white"/>
<path d="M8.74243e-08 35L0 33H38V35H8.74243e-08Z" fill="white"/>
<path fill-rule="evenodd" clip-rule="evenodd" d="M34.2071 7.79289C34.5976 8.18342 34.5976 8.81658 34.2071 9.20711L24.0277 19.3865L17.4754 13.3382L7.65079 21.7593C7.23147 22.1187 6.60017 22.0701 6.24074 21.6508C5.88132 21.2315 5.92988 20.6002 6.34921 20.2407L17.5246 10.6618L23.9723 16.6135L32.7929 7.79289C33.1834 7.40237 33.8166 7.40237 34.2071 7.79289Z" fill="white"/>
<path d="M6.45898 23.5879C6.45898 23.0356 6.9067 22.5879 7.45898 22.5879H10.459C11.0113 22.5879 11.459 23.0356 11.459 23.5879V31C11.459 31.5523 11.0113 32 10.459 32H7.45898C6.9067 32 6.45898 31.5523 6.45898 31V23.5879Z" fill="white"/>
<path d="M22.2363 23.5879C22.2363 23.0356 22.684 22.5879 23.2363 22.5879H26.2363C26.7886 22.5879 27.2363 23.0356 27.2363 23.5879V31C27.2363 31.5523 26.7886 32 26.2363 32H23.2363C22.684 32 22.2363 31.5523 22.2363 31V23.5879Z" fill="white"/>
<path d="M14.2363 17.3154C14.2363 16.7631 14.684 16.3154 15.2363 16.3154H18.2363C18.7886 16.3154 19.2363 16.7631 19.2363 17.3154V31C19.2363 31.5523 18.7886 32 18.2363 32H15.2363C14.684 32 14.2363 31.5523 14.2363 31V17.3154Z" fill="white"/>
<path d="M30.2363 16C30.2363 15.4477 30.684 15 31.2363 15H34.2363C34.7886 15 35.2363 15.4477 35.2363 16V31C35.2363 31.5523 34.7886 32 34.2363 32H31.2363C30.684 32 30.2363 31.5523 30.2363 31V16Z" fill="white"/>
<path d="M49 0V-1.5H47.5V0H49ZM50 0H51.5V-1.5H50V0ZM50 37V38.5H51.5V37H50ZM49 37H47.5V38.5H49V37ZM2 0V-1.5H0.5V0H2ZM4 0H5.5V-1.5H4V0ZM4 37V38.5H5.5V37H4ZM2 37H0.5V38.5H2V37ZM8.74243e-08 35H-1.5V36.5H8.74243e-08V35ZM0 33V31.5H-1.5L-1.5 33H0ZM38 33H39.5V31.5H38V33ZM38 35V36.5H39.5V35H38ZM34.2071 9.20711L35.2678 10.2678V10.2678L34.2071 9.20711ZM34.2071 7.79289L35.2678 6.73223L35.2678 6.73223L34.2071 7.79289ZM24.0277 19.3865L23.0103 20.4887L24.0693 21.4662L25.0884 20.4472L24.0277 19.3865ZM17.4754 13.3382L18.4928 12.236L17.5123 11.3309L16.4992 12.1993L17.4754 13.3382ZM7.65079 21.7593L6.6746 20.6204L6.6746 20.6204L7.65079 21.7593ZM6.24074 21.6508L7.37963 20.6746L6.24074 21.6508ZM6.34921 20.2407L7.3254 21.3796H7.3254L6.34921 20.2407ZM17.5246 10.6618L18.542 9.55961L17.5616 8.65455L16.5484 9.52293L17.5246 10.6618ZM23.9723 16.6135L22.9549 17.7157L24.0139 18.6932L25.0329 17.6742L23.9723 16.6135ZM32.7929 7.79289L31.7322 6.73223L31.7322 6.73223L32.7929 7.79289ZM49 1.5H50V-1.5H49V1.5ZM48.5 0V37H51.5V0H48.5ZM50 35.5H49V38.5H50V35.5ZM50.5 37V0H47.5V37H50.5ZM2 1.5H4V-1.5H2V1.5ZM2.5 0V37H5.5V0H2.5ZM4 35.5H2V38.5H4V35.5ZM3.5 37V0H0.5V37H3.5ZM1.5 35L1.5 33H-1.5L-1.5 35H1.5ZM0 34.5H38V31.5H0V34.5ZM36.5 33V35H39.5V33H36.5ZM38 33.5H8.74243e-08V36.5H38V33.5ZM35.2678 10.2678C36.2441 9.29146 36.2441 7.70854 35.2678 6.73223L33.1464 8.85355C32.9512 8.65829 32.9512 8.34171 33.1464 8.14645L35.2678 10.2678ZM8.62698 22.8981L18.4516 14.4771L16.4992 12.1993L6.6746 20.6204L8.62698 22.8981ZM5.10186 22.627C6.00041 23.6753 7.57866 23.7967 8.62698 22.8981L6.6746 20.6204C6.88427 20.4407 7.19992 20.4649 7.37963 20.6746L5.10186 22.627ZM5.37302 19.1019C4.32471 20.0004 4.2033 21.5787 5.10186 22.627L7.37963 20.6746C7.55934 20.8843 7.53506 21.1999 7.3254 21.3796L5.37302 19.1019ZM31.7322 6.73223L22.9116 15.5528L25.0329 17.6742L33.8536 8.85355L31.7322 6.73223ZM35.2678 6.73223C34.2915 5.75592 32.7085 5.75592 31.7322 6.73223L33.8535 8.85356C33.6583 9.04881 33.3417 9.04881 33.1465 8.85356L35.2678 6.73223ZM25.0884 20.4472L35.2678 10.2678L33.1464 8.14645L22.9671 18.3258L25.0884 20.4472ZM16.458 14.4404L23.0103 20.4887L25.0451 18.2843L18.4928 12.236L16.458 14.4404ZM16.5484 9.52293L5.37302 19.1019L7.3254 21.3796L18.5008 11.8007L16.5484 9.52293ZM24.9897 15.5113L18.542 9.55961L16.5072 11.764L22.9549 17.7157L24.9897 15.5113ZM7.45898 24.0879H10.459V21.0879H7.45898V24.0879ZM9.95898 23.5879V31H12.959V23.5879H9.95898ZM10.459 30.5H7.45898V33.5H10.459V30.5ZM7.95898 31V23.5879H4.95898V31H7.95898ZM7.45898 30.5C7.73513 30.5 7.95898 30.7239 7.95898 31H4.95898C4.95898 32.3807 6.07827 33.5 7.45898 33.5V30.5ZM9.95898 31C9.95898 30.7239 10.1828 30.5 10.459 30.5V33.5C11.8397 33.5 12.959 32.3807 12.959 31H9.95898ZM10.459 24.0879C10.1828 24.0879 9.95898 23.864 9.95898 23.5879H12.959C12.959 22.2072 11.8397 21.0879 10.459 21.0879V24.0879ZM7.45898 21.0879C6.07827 21.0879 4.95898 22.2072 4.95898 23.5879H7.95898C7.95898 23.864 7.73513 24.0879 7.45898 24.0879V21.0879ZM23.2363 24.0879H26.2363V21.0879H23.2363V24.0879ZM25.7363 23.5879V31H28.7363V23.5879H25.7363ZM26.2363 30.5H23.2363V33.5H26.2363V30.5ZM23.7363 31V23.5879H20.7363V31H23.7363ZM23.2363 30.5C23.5125 30.5 23.7363 30.7239 23.7363 31H20.7363C20.7363 32.3807 21.8556 33.5 23.2363 33.5V30.5ZM25.7363 31C25.7363 30.7239 25.9602 30.5 26.2363 30.5V33.5C27.617 33.5 28.7363 32.3807 28.7363 31H25.7363ZM26.2363 24.0879C25.9602 24.0879 25.7363 23.864 25.7363 23.5879H28.7363C28.7363 22.2072 27.617 21.0879 26.2363 21.0879V24.0879ZM23.2363 21.0879C21.8556 21.0879 20.7363 22.2072 20.7363 23.5879H23.7363C23.7363 23.864 23.5125 24.0879 23.2363 24.0879V21.0879ZM15.2363 17.8154H18.2363V14.8154H15.2363V17.8154ZM17.7363 17.3154V31H20.7363V17.3154H17.7363ZM18.2363 30.5H15.2363V33.5H18.2363V30.5ZM15.7363 31V17.3154H12.7363V31H15.7363ZM15.2363 30.5C15.5125 30.5 15.7363 30.7239 15.7363 31H12.7363C12.7363 32.3807 13.8556 33.5 15.2363 33.5V30.5ZM17.7363 31C17.7363 30.7239 17.9602 30.5 18.2363 30.5V33.5C19.617 33.5 20.7363 32.3807 20.7363 31H17.7363ZM18.2363 17.8154C17.9602 17.8154 17.7363 17.5916 17.7363 17.3154H20.7363C20.7363 15.9347 19.617 14.8154 18.2363 14.8154V17.8154ZM15.2363 14.8154C13.8556 14.8154 12.7363 15.9347 12.7363 17.3154H15.7363C15.7363 17.5916 15.5125 17.8154 15.2363 17.8154V14.8154ZM31.2363 16.5H34.2363V13.5H31.2363V16.5ZM33.7363 16V31H36.7363V16H33.7363ZM34.2363 30.5H31.2363V33.5H34.2363V30.5ZM31.7363 31V16H28.7363V31H31.7363ZM31.2363 30.5C31.5125 30.5 31.7363 30.7239 31.7363 31H28.7363C28.7363 32.3807 29.8556 33.5 31.2363 33.5V30.5ZM33.7363 31C33.7363 30.7239 33.9602 30.5 34.2363 30.5V33.5C35.617 33.5 36.7363 32.3807 36.7363 31H33.7363ZM34.2363 16.5C33.9602 16.5 33.7363 16.2761 33.7363 16H36.7363C36.7363 14.6193 35.617 13.5 34.2363 13.5V16.5ZM31.2363 13.5C29.8556 13.5 28.7363 14.6193 28.7363 16H31.7363C31.7363 16.2761 31.5125 16.5 31.2363 16.5V13.5Z" fill="white" mask="url(#path-2-inside-1_198:686)"/>
</svg>
