<svg width="86" height="40" viewBox="0 0 86 40" fill="none" xmlns="http://www.w3.org/2000/svg">
<path fill-rule="evenodd" clip-rule="evenodd" d="M0 29.4974H3.30663V33.1294H9.20612V29.4974H12.4691V39.6892H9.20612V35.4018H3.26293V39.6504H0V29.4974Z" fill="#004F9F"/>
<path fill-rule="evenodd" clip-rule="evenodd" d="M12.8398 29.4974H16.0591L19.4434 33.4207L22.7889 29.4974H25.9644L21.0554 35.7271V39.6892H17.7925V35.4406L12.8398 29.4974Z" fill="#004F9F"/>
<path fill-rule="evenodd" clip-rule="evenodd" d="M26.375 29.4974H29.6379V37.3877H34.8771C35.7025 37.3877 36.2415 36.5623 36.2415 35.6931V29.4974H39.4995V37.6305C39.4995 38.9075 38.0429 39.6504 37.232 39.6504H26.375V29.4974Z" fill="#004F9F"/>
<path fill-rule="evenodd" clip-rule="evenodd" d="M40.2031 29.4974H51.0601C51.3744 29.4772 51.6892 29.5252 51.9831 29.6383C52.277 29.7514 52.5429 29.9267 52.7625 30.1524C52.9822 30.378 53.1503 30.6485 53.2554 30.9453C53.3605 31.2422 53.4001 31.5582 53.3714 31.8718V39.6698H50.1084V33.5033C50.1084 32.639 49.822 32.1243 48.7052 32.1243H43.7914V39.7184H40.2031V29.5217V29.4974Z" fill="#004F9F"/>
<path fill-rule="evenodd" clip-rule="evenodd" d="M54.3633 29.4974H63.851C65.7495 29.4974 67.2159 31.0221 67.2159 32.202V36.9022C67.1916 37.7227 66.036 39.7038 64.5939 39.7038H54.3633V29.5071V29.4974ZM57.6845 37.4217H62.6954C62.8583 37.4282 63.0209 37.4022 63.1737 37.3452C63.3265 37.2882 63.4664 37.2013 63.5853 37.0897C63.7041 36.978 63.7996 36.8439 63.866 36.695C63.9325 36.546 63.9687 36.3854 63.9724 36.2224V33.2508C63.9724 32.5322 63.38 32.1 62.6177 32.1H57.6845V37.4411V37.4217Z" fill="#004F9F"/>
<path fill-rule="evenodd" clip-rule="evenodd" d="M71.2405 29.4537H81.4371V39.6892H77.7858V37.0527H71.5318V39.6892H67.8562V33.0468C67.8377 32.1217 68.1838 31.2264 68.8197 30.5542C69.4556 29.8819 70.3303 29.4867 71.2551 29.4537H71.2405ZM71.4881 33.0905V34.7366H77.7615V32.1389H72.4787C72.3485 32.1286 72.2177 32.1467 72.0953 32.1919C71.9728 32.2371 71.8616 32.3083 71.7693 32.4006C71.677 32.4929 71.6058 32.6041 71.5606 32.7266C71.5154 32.849 71.4973 32.9798 71.5075 33.11L71.4881 33.0905Z" fill="#004F9F"/>
<path fill-rule="evenodd" clip-rule="evenodd" d="M82.0781 29.478H85.3362V40H82.0781V29.478Z" fill="#004F9F"/>
<path fill-rule="evenodd" clip-rule="evenodd" d="M42.8683 0C29.3359 0 18.3672 5.39937 18.3672 12.0806C18.3672 18.7618 29.3359 24.1758 42.8683 24.1758C56.4007 24.1758 67.3645 18.757 67.3645 12.0806C67.3645 5.40422 56.3959 0 42.8683 0ZM40.5425 2.67541C43.3393 1.7043 51.6471 2.67541 54.8761 4.22433C55.9054 5.19544 50.2681 8.4001 43.5578 9.77907C33.9584 11.7213 38.5177 4.31173 40.5425 2.67541ZM24.0579 16.9944C21.9506 15.4892 17.8185 11.1678 24.6648 6.71037C27.153 5.16649 29.9137 4.1133 32.7979 3.60767C34.0021 3.35033 34.8615 3.65137 33.769 4.55451C31.4917 6.92401 26.7576 14.7512 26.3254 16.4749C25.9807 17.6402 25.2912 17.9315 24.0433 16.9944H24.0579ZM43.7714 21.9859C39.7267 22.4132 30.7294 21.0828 30.5595 19.9223C30.7294 17.1207 44.8445 12.4739 47.3839 15.0668C48.4619 17.0867 46.4128 21.8645 43.7714 21.9956V21.9859ZM64.3347 13.8674C63.3053 16.2321 59.819 18.9027 52.5017 20.7089C51.3801 20.9663 50.9965 20.2768 51.7248 19.631C52.9338 18.9027 58.7411 9.17699 59.4937 7.23962C59.921 6.26852 60.7416 6.63753 61.2563 7.02112C63.5821 8.5312 65.3446 10.9832 64.3541 13.8674H64.3347Z" fill="#004F9F"/>
</svg>
