<svg width="151" height="35" viewBox="0 0 151 35" fill="none" xmlns="http://www.w3.org/2000/svg">
<path fill-rule="evenodd" clip-rule="evenodd" d="M17.4558 0L34.9116 17.5362L17.4558 35L0 17.5362L17.4558 0Z" fill="#E33027"/>
<path fill-rule="evenodd" clip-rule="evenodd" d="M8.92969 9.14587L9.37171 9.2182L9.68514 9.37893L10.0629 9.5236L10.2799 9.75666L10.5853 10.0621L10.7299 10.3514L10.8907 10.7291V11.1068L10.8103 11.6453L10.6576 12.023L11.0353 12.0954L11.413 12.24L11.7184 12.4007L12.0238 12.6177L12.2408 12.9231L12.4016 13.2285L12.5462 13.984L12.4739 14.3617L12.3292 14.7394L12.1685 15.0448L11.9515 15.3502L11.6461 15.5672L11.3407 15.8003L10.963 15.8726L10.5853 15.945L10.0629 15.8726L9.59674 15.6476V15.945L9.68514 16.7084L9.90213 17.3835L10.2799 17.9943L10.6576 18.5971L11.2684 19.0471L11.8631 19.3525L12.5462 19.5776L13.3017 19.6579L14.0571 19.5776L14.7403 19.3525L15.351 19.0471L15.8734 18.5971L16.3235 17.9943L16.7012 17.3835L16.8619 16.7084L17.0066 15.945L16.9343 15.5672L16.7012 15.728L16.3958 15.8003L16.0985 15.8726L15.8011 15.945L15.4234 15.8726L15.0456 15.8003L14.7403 15.5672L14.4349 15.3502L14.2179 15.0448L14.0571 14.7394L13.9125 13.984L14.0571 13.2285L14.2179 12.9231L14.4349 12.6177L14.7403 12.4007L15.0456 12.24L15.4234 12.0954L15.7207 12.023L15.568 11.6453L15.4957 11.1068L15.568 10.7291L15.7207 10.3514L15.8734 10.0621L16.0985 9.75666L16.3958 9.5236L16.7012 9.37893L17.0789 9.2182H17.8344L18.2121 9.37893L18.5175 9.5236L18.8229 9.75666L19.0399 10.0621L19.2006 10.3514L19.3453 10.7291L19.4176 11.1068L19.3453 11.6453L19.1283 12.023L19.506 12.0954L19.8838 12.24L20.1731 12.4007L20.4785 12.6177L20.7115 12.9231L20.8562 13.2285L20.9285 13.6063L21.0169 13.984L20.9285 14.3617L20.8562 14.7394L20.7115 15.0448L20.4785 15.3502L20.1731 15.5672L19.7954 15.8003L19.506 15.8726L19.1283 15.945L18.8229 15.8726L18.4452 15.8003L18.2121 15.728L17.9951 15.5672L17.9067 15.945L18.0675 16.7084L18.2121 17.3835L18.5898 17.9943L19.0399 18.5971L19.5784 19.0471L20.1731 19.3525L20.8562 19.5776L21.6117 19.6579L22.3671 19.5776L23.0502 19.3525L23.661 19.0471L24.1834 18.5971L24.6335 17.9943L25.0112 17.3835L25.2443 16.7084V15.6476L24.8665 15.8726L24.3281 15.945L23.9504 15.8726L23.5726 15.8003L23.1949 15.5672L22.9779 15.3502L22.7448 15.0448L22.5279 14.7394L22.4394 14.3617L22.3671 13.984L22.4394 13.6063L22.5279 13.2285L22.7448 12.9231L22.9056 12.6177L23.1949 12.4007L23.5726 12.24L23.878 12.0954L24.2557 12.023L24.1111 11.6453L24.0388 11.1068V10.7291L24.1834 10.3514L24.3281 10.0621L24.5611 9.75666L24.8665 9.5236L25.2443 9.37893L25.5497 9.2182H25.9274V23.8129H8.92969V9.14587Z" fill="white"/>
<path fill-rule="evenodd" clip-rule="evenodd" d="M42.8415 23.8129H46.8438V12.0953H51.4569V9.21814H38.3008V12.0953H42.8415V23.8129Z" fill="#343336"/>
<path fill-rule="evenodd" clip-rule="evenodd" d="M52.5156 23.8129H56.5983V9.21814H52.5156V23.8129Z" fill="#343336"/>
<path fill-rule="evenodd" clip-rule="evenodd" d="M62.6452 15.6475V9.21814H58.5625V23.8129H62.6452V16.1056L67.4833 23.8129H72.5384L67.1056 15.6475L72.0883 9.21814H67.3225L62.6452 15.6475Z" fill="#343336"/>
<path fill-rule="evenodd" clip-rule="evenodd" d="M77.5241 15.6475V9.21814H73.4414V23.8129H77.5241V16.1056L82.3622 23.8129H87.345L81.9121 15.6475L86.9672 9.21814H82.1291L77.5241 15.6475Z" fill="#343336"/>
<path fill-rule="evenodd" clip-rule="evenodd" d="M98.0812 9.21814V18.2916L98.0008 18.9747L97.8481 19.5775L97.6231 20.0356L97.3257 20.4856L96.948 20.8634L96.4095 21.0964L95.8148 21.2411L95.1317 21.3134L94.5209 21.2411L93.9262 21.0964L93.3877 20.8634L93.01 20.4856L92.6323 20.0356L92.4153 19.5775L92.2545 18.9747V9.21814H88.1719V19.2078L88.3326 19.8829L88.4773 20.4856L88.7827 21.0964L89.0881 21.6188L89.4658 22.0689L89.8435 22.4466L90.2936 22.8243L90.816 23.1297L91.3544 23.4351L91.8768 23.6682L92.5599 23.8129L93.1707 23.9575L93.7654 24.1183H96.4899L97.165 23.9575L97.7758 23.8129L98.3785 23.6682L98.9813 23.4351L99.5117 23.1297L100.042 22.8243L100.492 22.4466L100.87 22.0689L101.248 21.6188L101.553 21.0964L101.778 20.4856L102.003 19.8829L102.156 18.5247V9.21814H98.0812Z" fill="#343336"/>
<path fill-rule="evenodd" clip-rule="evenodd" d="M108.505 15.4225V12.0953H111.045L111.503 12.2399L111.881 12.3283L112.178 12.5453L112.411 12.8507L112.564 13.2284L112.636 13.7589L112.564 14.2893L112.411 14.5947L112.178 14.9724L111.881 15.1171L111.503 15.2698L111.045 15.3501L110.064 15.4225H108.505ZM108.505 18.2916H110.772L111.222 18.3719L111.599 18.597L111.905 18.822L112.13 19.1997L112.202 19.6578L112.355 20.7187L112.588 22.326L112.813 23.8369H117.193L116.968 23.0333L116.743 22.1171L116.663 21.3134L116.51 20.4133L116.438 19.6096L116.285 18.8541L116.06 18.2514L115.754 17.7933L115.537 17.5683L115.304 17.3432L115.079 17.1905L114.774 17.0378L114.099 16.8128L113.191 16.7324L113.946 16.5878L114.621 16.3547L115.304 16.0493L115.867 15.5912L116.317 15.0688L116.695 14.458L116.847 13.783L116.92 12.9793V12.4569L116.775 11.9345L116.622 11.4684L116.397 11.0907L116.092 10.7129L115.787 10.4236L115.031 9.95748L114.131 9.57975L113.223 9.36276L112.234 9.20203H104.535V23.7967H108.554V18.2916H108.505Z" fill="#343336"/>
<path fill-rule="evenodd" clip-rule="evenodd" d="M118.707 23.8129H122.79V9.21814H118.707V23.8129Z" fill="#343336"/>
<path fill-rule="evenodd" clip-rule="evenodd" d="M133.741 23.8129V21.0161H128.975V9.21814H124.98V23.8129H133.741Z" fill="#343336"/>
<path fill-rule="evenodd" clip-rule="evenodd" d="M137.896 23.8129L138.885 21.0161H144.8L145.788 23.8129H150.393L144.583 9.21814H139.672L133.918 23.8129H137.896ZM139.857 18.1871L141.818 12.1355L143.795 18.1871H139.857Z" fill="#343336"/>
</svg>
