<svg width="126" height="30" viewBox="0 0 126 30" fill="none" xmlns="http://www.w3.org/2000/svg">
<path d="M13.3721 19.9063C12.7912 20.4333 11.9525 20.6088 11.4273 20.676C10.3571 20.8097 9.2504 20.4545 8.54422 19.6033C7.96427 18.908 7.66675 18.0075 7.10054 17.2876C6.20616 16.148 4.77645 15.4017 3.30369 15.6654C0.392436 16.1935 -0.928409 19.588 0.717461 21.9428C3.06995 25.308 8.3603 24.7253 11.0755 22.394C11.9209 21.6691 12.7103 20.8624 13.3721 19.9063" fill="#E51636"/>
<path d="M112.016 19.9056C112.598 20.4337 113.434 20.6093 113.961 20.6755C115.03 20.8101 116.138 20.4553 116.843 19.6035C117.423 18.9073 117.722 18.0077 118.287 17.2878C119.183 16.1477 120.613 15.4014 122.085 15.6656C124.995 16.193 126.316 19.588 124.669 21.9429C122.317 25.3075 117.028 24.7255 114.314 22.3944C113.468 21.6693 112.677 20.8622 112.016 19.9056" fill="#E51636"/>
<path d="M102.319 1.95776C102.246 1.9552 95.2977 1.9552 95.2335 1.95753C94.4721 1.98053 93.8423 2.68579 93.8063 3.41113C93.7677 4.18177 94.4376 4.94611 95.2335 4.98442C95.307 4.98698 102.255 4.98698 102.319 4.98442C103.081 4.96123 103.711 4.25638 103.746 3.53082C103.785 2.7595 103.115 1.99653 102.319 1.95776Z" fill="#472380"/>
<path d="M58.0665 17.057C57.9693 16.6549 57.9177 16.2594 57.89 15.8602C57.8853 15.2841 57.8853 14.4753 57.8853 13.7311C57.9578 11.1604 58.4377 6.63818 54.951 6.63818C52.5963 6.63818 51.201 8.61967 50.8057 9.26747C50.7493 7.46112 49.3244 6.15063 47.1475 6.15063C45.7586 6.15063 44.9336 7.25601 44.9336 7.25601C44.9336 7.25601 46.2885 7.72574 46.2885 9.54607C46.3031 10.8498 46.2864 17.1961 46.2885 17.2229C46.3419 18.3477 47.1276 19.4021 48.5332 19.4021C49.9388 19.4021 50.8111 18.3217 50.8111 17.2209V11.5922C51.007 10.6722 51.5247 9.73313 52.3053 9.73313C53.3178 9.73313 53.3746 10.859 53.3793 10.859L53.3746 16.3076C53.3793 16.485 53.4019 16.6549 53.4327 16.8217C53.4828 17.1057 53.5687 17.3699 53.6919 17.6124C54.232 18.7099 55.4268 19.4253 57.0324 19.4253C58.4204 19.4253 59.2456 18.3209 59.2456 18.3209C59.2456 18.3209 58.431 18.0337 58.0665 17.057" fill="#472380"/>
<path d="M91.5861 17.0571C91.488 16.655 91.4355 16.2594 91.4096 15.8602L91.4137 2.3748C91.4137 1.06321 90.3505 0 89.0389 0C87.727 0 86.6641 1.06321 86.6641 2.3748L86.6672 14.3178C86.6789 15.3936 86.5732 16.4929 87.0808 17.4813C87.6188 18.5792 88.946 19.4254 90.5497 19.4254C91.9418 19.4254 92.7651 18.3209 92.7651 18.3209C92.7651 18.3209 91.9524 18.0337 91.5861 17.0571" fill="#472380"/>
<path d="M38.515 6.52063C34.951 6.52063 32.0625 9.4089 32.0625 12.9734C32.0625 16.5372 34.951 19.4254 38.515 19.4254C42.0783 19.4254 44.968 16.5372 44.968 12.9734C44.968 9.4089 42.0783 6.52063 38.515 6.52063ZM38.5624 16.6848V16.688C38.5572 16.688 38.5529 16.6861 38.5482 16.6861C38.5431 16.6861 38.5389 16.688 38.5349 16.688V16.6848C37.3166 16.6627 36.7058 15.2627 36.7058 12.9734C36.7058 10.6874 37.4796 9.2856 38.5349 9.26058V9.26013C38.5387 9.26013 38.5432 9.26013 38.5482 9.26058C38.5526 9.26013 38.557 9.26013 38.5624 9.26013V9.26058C39.6163 9.28563 40.391 10.6874 40.391 12.9734C40.391 15.2627 39.7813 16.6627 38.5624 16.6848Z" fill="#472380"/>
<path d="M72.5814 17.0571C72.4829 16.655 72.4306 16.2594 72.4047 15.8602L72.4078 2.3748C72.4078 1.06321 71.3448 0 70.033 0C68.7214 0 67.6582 1.06321 67.6582 2.3748L67.6487 8.76218C67.0776 7.96697 65.8194 6.6229 63.837 6.6229C58.383 6.6229 58.0384 16.3349 61.7784 18.7374C62.8329 19.4139 64.423 19.5879 65.6262 19.2753C66.4571 19.0586 67.7668 18.2425 67.9774 17.2678C68.0073 17.3393 68.0394 17.4105 68.0759 17.4813C68.6141 18.5792 69.941 19.4254 71.545 19.4254C72.9366 19.4254 73.7604 18.3209 73.7604 18.3209C73.7604 18.3209 72.9477 18.0337 72.5814 17.0571H72.5814ZM65.5038 16.272V16.2739C65.4989 16.2739 65.495 16.2735 65.4908 16.2735C65.4851 16.2735 65.4824 16.2739 65.4761 16.2739V16.272C64.2576 16.254 63.6479 15.0323 63.6479 13.0389C63.6479 11.047 64.4208 9.82697 65.4761 9.80465V9.80272C65.4824 9.80272 65.4851 9.80465 65.4908 9.80465C65.495 9.80465 65.4989 9.80272 65.5038 9.80272V9.80465C66.5603 9.82695 67.3334 11.047 67.3334 13.0389C67.3334 15.0323 66.7223 16.254 65.5038 16.272Z" fill="#472380"/>
<path d="M84.9406 15.4328C84.9406 15.4328 84.2442 16.3871 81.5423 16.3871C78.8402 16.3871 78.2605 14.2867 78.2605 14.2867C82.198 14.2867 85.501 14.0229 85.501 10.8347C85.501 7.64706 81.8978 6.59558 79.7614 6.59558C76.2337 6.59558 73.6562 9.409 73.6562 13.1225C73.6562 17.3047 77.0124 19.4253 79.7986 19.4253C84.7053 19.4253 84.9406 15.4328 84.9406 15.4328V15.4328ZM78.0051 12.2411C78.1433 11.2235 78.3872 9.94094 79.3025 9.34702C80.0628 8.85316 81.1273 9.41532 81.1436 10.366C81.1609 11.3702 80.5115 12.0541 79.6077 12.2443C79.5117 12.2648 77.9918 12.3408 78.0051 12.2411" fill="#472380"/>
<path d="M103.937 15.4328C103.937 15.4328 103.24 16.3871 100.538 16.3871C97.8363 16.3871 97.2566 14.2867 97.2566 14.2867C101.194 14.2867 104.497 14.0229 104.497 10.8347C104.497 7.64706 100.894 6.59558 98.7575 6.59558C95.2298 6.59558 92.6523 9.409 92.6523 13.1225C92.6523 17.3047 96.0085 19.4253 98.7947 19.4253C103.701 19.4253 103.937 15.4328 103.937 15.4328V15.4328ZM97.0012 12.2411C97.1394 11.2235 97.3832 9.94094 98.2986 9.34702C99.0589 8.85316 100.123 9.41532 100.14 10.366C100.157 11.3702 99.5076 12.0541 98.6038 12.2443C98.5078 12.2648 96.9879 12.3408 97.0012 12.2411" fill="#472380"/>
<path d="M112.845 15.7779H110.14C110.339 15.7779 112.34 14.0901 113.004 13.5275C114.742 12.0523 117.868 9.92384 116.957 7.16676L116.959 7.18612C116.792 6.52953 116.287 6.15063 116.287 6.15063C116.287 6.15063 116.098 6.68663 115.455 6.92646C115.192 6.99003 114.93 7.03804 114.668 7.05359C114.452 7.05742 107.105 7.05359 107.105 7.05359C106.111 7.05231 105.278 7.85151 105.264 8.79413C105.253 9.74486 106.039 10.5074 107.046 10.5209L111.332 10.5482C109.345 11.6563 106.973 12.9685 105.768 14.9721C105.08 16.1221 104.344 17.8951 104.623 19.2551C105.576 18.411 108.075 17.5939 109.977 17.9911C110.689 18.1399 111.446 18.5034 112.062 18.8884C115.63 21.1201 117.774 16.7552 116.068 14.8312C116.068 14.8312 115.096 15.7779 112.845 15.7779" fill="#472380"/>
<path d="M32.4084 18.4925C30.22 16.0929 29.5354 12.1024 29.4007 9.45015C29.2846 7.15874 29.4085 3.19034 31.2142 2.0354C30.6097 1.27558 29.4173 0.969482 28.5112 0.969482C26.4754 0.969482 25.494 2.32549 24.7978 3.30057C24.5679 3.62266 21.1445 8.34522 21.1445 8.34522C21.1445 8.34522 18.265 3.89066 17.9111 3.35556C17.422 2.61716 16.5062 1.26025 14.8967 1.02538C14.2036 0.924185 12.4056 0.832215 11.4269 2.17537C13.1138 3.52506 13.0716 6.96219 12.7053 9.30882C11.6065 16.3525 8.60938 17.0012 8.60938 17.0012C10.1446 21.1475 14.0983 19.5093 15.2156 16.2036C15.9391 14.0548 16.4064 11.3349 16.5141 9.07936L20.8531 15.7352C20.8531 15.7352 25.7661 9.10009 25.7661 9.10596C24.9569 20.8402 28.9868 24.1667 32.5109 24.1667C36.038 24.1667 37.2382 20.9412 37.2382 20.9412C35.3311 20.826 33.6621 19.867 32.4084 18.4925" fill="#472380"/>
<path d="M43.4187 22.3091C43.4611 22.4816 43.4832 22.6511 43.4945 22.8215C43.4949 22.8733 43.4913 28.9605 43.4942 29.0333C43.5096 29.5447 43.9827 29.9666 44.4691 29.9908C44.9864 30.0169 45.4985 29.5672 45.5244 29.0333C45.5267 28.9636 45.5244 23.4817 45.5244 23.4817C45.5197 23.0214 45.5645 22.5508 45.3475 22.1281C45.1169 21.658 44.5489 21.2955 43.8628 21.2955C43.2668 21.2955 42.9141 21.7686 42.9141 21.7686C42.9141 21.7686 43.2621 21.8913 43.4187 22.3091" fill="#472380"/>
<path d="M107.771 28.978C107.729 28.8055 107.706 28.6365 107.695 28.4654C107.695 28.4137 107.698 22.3269 107.696 22.2545C107.68 21.7429 107.207 21.3209 106.72 21.2963C106.203 21.2707 105.691 21.7203 105.665 22.2545C105.663 22.3242 105.665 27.8056 105.665 27.8056C105.67 28.2657 105.625 28.7361 105.842 29.1596C106.073 29.6296 106.64 29.9916 107.327 29.9916C107.923 29.9916 108.275 29.5189 108.275 29.5189C108.275 29.5189 107.927 29.3956 107.771 28.978" fill="#472380"/>
<path d="M71.0436 24.447C69.9881 24.447 69.3633 25.3346 69.1864 25.6249L69.1803 25.6294C69.1801 25.3357 69.1791 25.1035 69.1791 25.0918C69.1636 24.5806 68.6907 24.1986 68.2045 24.1749C67.6879 24.1488 67.1753 24.5585 67.1496 25.0918C67.148 25.1612 67.148 28.9779 67.1496 29.0296C67.1654 29.5401 67.6381 29.962 68.1247 29.9861C68.6413 30.0118 69.1532 29.5626 69.1791 29.0296C69.1803 28.9901 69.1809 27.7445 69.1805 26.6719L69.1888 26.6661C69.276 26.2541 69.508 25.833 69.8582 25.833C70.3118 25.833 70.3368 26.3377 70.339 26.3377L70.3345 29.0294C70.3503 29.54 70.8229 29.9619 71.3096 29.986C71.8262 30.0117 72.3381 29.5625 72.364 29.0294L72.3613 27.6227C72.3613 26.1763 72.5121 24.4401 71.0436 24.4468" fill="#472380"/>
<path d="M96.985 24.447C95.9297 24.447 95.3046 25.3346 95.1277 25.6249L95.1218 25.6294C95.1216 25.3357 95.1207 25.1035 95.1207 25.0918C95.1049 24.5806 94.6322 24.1986 94.1461 24.1749C93.6294 24.1488 93.1167 24.5585 93.0912 25.0918C93.0894 25.1612 93.0894 28.9779 93.0912 29.0296C93.1067 29.5401 93.5796 29.962 94.066 29.9861C94.5827 30.0118 95.0948 29.5626 95.1207 29.0296C95.1218 28.9901 95.1225 27.7445 95.122 26.6719L95.1304 26.6661C95.2174 26.2541 95.4495 25.833 95.7998 25.833C96.2531 25.833 96.2783 26.3377 96.2803 26.3377L96.2761 29.0294C96.2916 29.54 96.7645 29.9619 97.2509 29.986C97.7675 30.0117 98.2794 29.5625 98.3056 29.0294L98.3026 27.6227C98.3026 26.1763 98.4536 24.4401 96.9849 24.4468" fill="#472380"/>
<path d="M50.4342 24.447C49.3789 24.447 48.7539 25.3346 48.5769 25.6249L48.571 25.6294C48.5706 25.3357 48.5699 25.1035 48.5699 25.0918C48.5543 24.5806 48.0817 24.1986 47.595 24.1749C47.0787 24.1488 46.5659 24.5585 46.5404 25.0918C46.5386 25.1612 46.5386 28.9779 46.5404 29.0296C46.5562 29.5401 47.0291 29.962 47.5155 29.9861C48.0319 30.0118 48.5438 29.5626 48.5699 29.0296C48.571 28.9901 48.5715 27.7445 48.571 26.6719L48.5796 26.6661C48.6666 26.2541 48.8988 25.833 49.249 25.833C49.7026 25.833 49.7276 26.3377 49.7298 26.3377L49.7255 29.0294C49.7409 29.54 50.2138 29.9619 50.7002 29.986C51.217 30.0117 51.7289 29.5625 51.7548 29.0294L51.7519 27.6227C51.7519 26.1763 51.9029 24.4401 50.4342 24.4468" fill="#472380"/>
<path d="M89.6295 24.1921C88.0327 24.1921 86.7383 25.4859 86.7383 27.0829C86.7383 28.68 88.0327 29.9734 89.6295 29.9734C91.2258 29.9734 92.5204 28.68 92.5204 27.0829C92.5204 25.4859 91.2258 24.1921 89.6295 24.1921V24.1921ZM89.6504 28.7456V28.7469C89.6478 28.7469 89.6459 28.7465 89.6437 28.7465C89.6412 28.7465 89.6394 28.7469 89.6385 28.7469V28.7456C89.0919 28.735 88.8187 28.1087 88.8187 27.0829C88.8187 26.0587 89.1649 25.4309 89.6385 25.4196V25.4194C89.6394 25.4194 89.6412 25.4194 89.6437 25.4196C89.6459 25.4194 89.6478 25.4194 89.6504 25.4194V25.4196C90.1227 25.4309 90.4691 26.0587 90.4691 27.0829C90.4691 28.1087 90.1961 28.7351 89.6504 28.7456Z" fill="#472380"/>
<path d="M78.8337 25.022C78.8171 24.4869 78.3135 24.0446 77.8046 24.0192C77.2627 23.9923 76.7265 24.463 76.6992 25.022C76.6988 25.0608 76.694 25.1439 76.694 25.159C76.4371 24.8024 75.8743 24.2004 74.9857 24.2004C72.5422 24.2004 72.3873 28.552 74.0632 29.6282C74.5361 29.9314 75.2485 30.0089 75.7879 29.8692C76.0924 29.7896 76.5412 29.5297 76.7454 29.1979C76.8705 29.6253 77.2938 29.9508 77.7288 29.9724C78.27 29.9992 78.8065 29.5293 78.8337 28.9701C78.836 28.8973 78.8353 25.0709 78.8337 25.022H78.8337ZM75.7325 28.524V28.5246C75.7309 28.5246 75.7286 28.5244 75.7269 28.5244C75.7242 28.5244 75.7228 28.5246 75.7203 28.5246V28.524C75.1742 28.5154 74.9012 27.9677 74.9012 27.0747C74.9012 26.1825 75.2472 25.636 75.7203 25.6256V25.6249C75.7228 25.6249 75.7241 25.6256 75.7269 25.6256C75.7286 25.6256 75.7309 25.6249 75.7325 25.6249V25.6256C76.2056 25.6359 76.5527 26.1825 76.5527 27.0747C76.5527 27.9677 76.2784 28.5154 75.7325 28.524Z" fill="#472380"/>
<path d="M104.759 25.022C104.743 24.4869 104.24 24.0446 103.73 24.0192C103.189 23.9923 102.653 24.463 102.625 25.022C102.624 25.0608 102.619 25.1439 102.619 25.159C102.364 24.8024 101.8 24.2004 100.912 24.2004C98.468 24.2004 98.313 28.552 99.989 29.6282C100.462 29.9314 101.175 30.0089 101.713 29.8692C102.018 29.7896 102.468 29.5297 102.672 29.1979C102.796 29.6253 103.22 29.9508 103.654 29.9724C104.196 29.9992 104.732 29.5293 104.759 28.9701C104.762 28.8973 104.76 25.0709 104.759 25.022H104.759ZM101.659 28.524V28.5246C101.656 28.5246 101.655 28.5244 101.653 28.5244C101.65 28.5244 101.649 28.5246 101.646 28.5246V28.524C101.1 28.5154 100.827 27.9677 100.827 27.0747C100.827 26.1825 101.173 25.636 101.646 25.6256V25.6249C101.649 25.6249 101.65 25.6256 101.653 25.6256C101.655 25.6256 101.656 25.6249 101.659 25.6249V25.6256C102.132 25.6359 102.478 26.1825 102.478 27.0747C102.478 27.9677 102.204 28.5154 101.659 28.524" fill="#472380"/>
<path d="M86.1008 25.5664C86.0767 25.0622 85.6807 24.6669 85.1812 24.6247C85.1512 24.6215 85.1237 24.6155 85.0949 24.6155C84.6432 24.6155 84.0743 25.0063 84.0743 25.5004L84.0768 27.3721H84.0743C84.0806 27.9559 84.0736 29.0105 84.0743 29.0225C84.0986 29.5267 84.4949 29.9223 84.9934 29.9642C85.0239 29.968 85.0509 29.9735 85.0802 29.9735C85.5319 29.9735 86.1008 29.5826 86.1008 29.0888L86.0988 27.5249H86.1008C86.0941 26.9405 86.1017 25.5779 86.1008 25.5664Z" fill="#472380"/>
<path d="M86.09 23.0354C86.09 23.5906 85.6395 24.0405 85.0841 24.0405C84.528 24.0405 84.0781 23.5906 84.0781 23.0354C84.0781 22.4791 84.528 22.0286 85.0841 22.0286C85.6395 22.0286 86.09 22.4791 86.09 23.0354Z" fill="#472380"/>
<path d="M65.529 24.3773C64.9263 24.4021 64.6283 24.8511 64.2181 25.4151C64.2152 25.4195 64.2186 25.1545 64.2183 25.1443C64.2026 24.6336 63.7301 24.2117 63.2444 24.1871C62.7269 24.1614 62.215 24.6106 62.1893 25.1443V29.0417H62.1875C62.2031 29.5529 62.6755 29.9751 63.1621 29.999C63.6742 30.0242 64.1807 29.5831 64.2152 29.0566H64.2197L64.2193 26.5878C64.2499 26.2258 64.4077 25.7737 64.6989 25.7759C65.1107 25.7798 64.6852 26.7758 65.6301 26.7758C66.9852 26.7758 67.1299 24.3113 65.5291 24.3773" fill="#472380"/>
<path d="M61.3904 28.182C61.3904 28.182 61.078 28.6098 59.8662 28.6098C58.654 28.6098 58.3932 27.6678 58.3932 27.6678C60.1601 27.6678 61.6417 27.5493 61.6417 26.1191C61.6417 24.6892 60.0256 24.2177 59.0672 24.2177C57.4846 24.2177 56.3281 25.4794 56.3281 27.1451C56.3281 29.0216 57.8338 29.9728 59.0839 29.9728C61.2849 29.9728 61.3904 28.182 61.3904 28.182V28.182ZM58.2787 26.7498C58.3405 26.2933 58.4503 25.7179 58.8614 25.4517C59.2022 25.2301 59.6798 25.4824 59.6873 25.9086C59.6949 26.3592 59.4037 26.6659 58.9982 26.7514C58.9552 26.7604 58.2726 26.7949 58.2787 26.7501" fill="#472380"/>
<path d="M56.2074 28.9051C56.2074 28.9051 55.6798 29.9737 54.7042 29.9737C53.9014 29.9737 52.9132 29.2646 52.872 28.2381C52.8713 28.2287 52.8663 26.7516 52.8625 25.5171H52.59C52.4475 25.5171 52.1953 25.4321 52.1953 25.0611C52.1953 24.6904 52.4791 24.6117 52.6193 24.6117H52.8602C52.8591 24.18 52.8586 23.8834 52.8593 23.8649C52.8848 23.3325 53.396 22.8845 53.9115 22.9104C54.3968 22.9347 54.8807 23.3551 54.8961 23.8649V24.6112H55.7553C55.8743 24.6112 56.1497 24.689 56.1497 25.067C56.1497 25.4448 55.8743 25.5171 55.7255 25.5171H54.8961V27.7842C54.8961 28.5199 55.5294 28.9017 56.2101 28.904" fill="#472380"/>
<path d="M83.3634 28.9051C83.3634 28.9051 82.8356 29.9737 81.8605 29.9737C81.0574 29.9737 80.0692 29.2646 80.0282 28.2381C80.0273 28.2287 80.0226 26.7516 80.0185 25.5171H79.746C79.6033 25.5171 79.3516 25.4321 79.3516 25.0611C79.3516 24.6904 79.6351 24.6117 79.7755 24.6117H80.0163C80.0149 24.18 80.0147 23.8834 80.0154 23.8649C80.0411 23.3325 80.552 22.8845 81.0675 22.9104C81.5528 22.9347 82.0365 23.3551 82.0521 23.8649V24.6112H82.9113C83.0301 24.6112 83.3057 24.689 83.3057 25.067C83.3057 25.4448 83.0301 25.5171 82.8813 25.5171H82.0521V27.7842C82.0521 28.5199 82.6854 28.9017 83.3662 28.904" fill="#472380"/>
</svg>
