<svg width="127" height="20" viewBox="0 0 127 20" fill="none" xmlns="http://www.w3.org/2000/svg">
<path fill-rule="evenodd" clip-rule="evenodd" d="M13.5988 0.682786V4.38122C11.9212 3.78227 10.1591 3.45338 8.37837 3.40682C6.47936 3.40682 5.42673 3.98292 5.42673 5.02133C5.42673 5.68278 5.88904 6.12374 7.21194 6.72118L10.7681 8.31436C13.6131 9.59932 15.0355 11.458 15.0355 13.8904C15.0355 17.6387 11.7994 20 6.65717 20C4.52239 19.9678 2.39748 19.7031 0.320056 19.2105V15.4196C2.26574 15.9871 4.27569 16.305 6.30155 16.3656C8.43526 16.3656 9.56613 15.7752 9.56613 14.6728C9.56613 14.0114 9.12516 13.5206 8.10098 13.0725L4.20341 11.33C1.33712 10.0142 0 8.30725 0 5.80369C0 2.24751 3.12944 0 8.02986 0C9.90697 0.0277102 11.775 0.266286 13.5988 0.711237V0.682786Z" fill="#0095AD"/>
<path fill-rule="evenodd" clip-rule="evenodd" d="M17.8281 0.384155H23.5891V19.616H17.8281V0.384155Z" fill="#0095AD"/>
<path fill-rule="evenodd" clip-rule="evenodd" d="M42.3271 0.384155V3.90477H33.6287V8.24332H41.2247V11.4297H33.6287V15.9247H42.4409V19.616H28.0312V0.384155H42.3271Z" fill="#0095AD"/>
<path fill-rule="evenodd" clip-rule="evenodd" d="M69.5374 0.384155V19.616H63.9613V6.95598L58.5061 19.7654H54.9783L49.5587 6.95598V19.616H45.7109V0.384155H52.7451L57.7166 12.0769L62.6668 0.384155H69.5374Z" fill="#0095AD"/>
<path fill-rule="evenodd" clip-rule="evenodd" d="M88.282 0.384155V3.90477H79.5765V8.24332H87.1725V11.4297H79.5765V15.9247H88.3816V19.616H73.9648V0.384155H88.282Z" fill="#0095AD"/>
<path fill-rule="evenodd" clip-rule="evenodd" d="M108.569 0.384155V19.616H102.424L95.5033 7.28315V19.616H91.6484V0.384155H97.9571L104.735 12.5534V0.384155H108.569Z" fill="#0095AD"/>
<path fill-rule="evenodd" clip-rule="evenodd" d="M125.286 0.682779V4.38121C123.618 3.7837 121.866 3.45481 120.094 3.40682C118.174 3.40682 117.121 3.97581 117.121 5.01421C117.121 5.72545 117.548 6.1024 118.921 6.72118L122.477 8.31435C125.322 9.6088 126.744 11.4651 126.744 13.9189C126.744 17.6458 123.501 20 118.373 20C116.236 19.9687 114.109 19.704 112.029 19.2105V15.4196C113.97 15.987 115.975 16.3049 117.996 16.3655C120.13 16.3655 121.275 15.7752 121.275 14.7084C121.275 13.9971 120.862 13.549 119.796 13.0725L115.912 11.33C113.003 10.0355 111.688 8.32146 111.688 5.83213C111.688 2.27595 114.81 0.0284424 119.703 0.0284424C121.583 0.0552584 123.453 0.293843 125.279 0.739679L125.286 0.682779Z" fill="#0095AD"/>
</svg>
