<svg width="170" height="80" viewBox="0 0 170 80" fill="none" xmlns="http://www.w3.org/2000/svg">
<path d="M56.4466 27.8387C56.4466 22.1613 62.9307 16.0968 62.9307 9.90322C62.9307 5.25806 58.6512 1.64516 54.7608 1C56.0576 1.77419 57.4841 3.70968 57.4841 6.16129C57.4841 11.9677 51 17.6452 51 24.7419C51 30.2903 54.8904 33.129 58.3918 33.6451C57.2247 32.6129 56.4466 30.5484 56.4466 27.8387Z" fill="#34271E"/>
<path d="M62.1513 32.6129C63.7075 32.2258 65.2636 32.0968 67.0792 32.0968H72.3961V41.9032C72.3961 52.871 67.987 57.5161 56.4453 57.5161V61C72.0071 61 78.7505 55.1936 78.7505 43.4516V27.9678H62.1513V32.6129Z" fill="#34271E"/>
<path d="M89.2542 27.9678H81.214V41.5162C81.214 46.9355 80.8249 49.6452 79.3984 52.871H89.1245C96.9054 52.871 101.963 47.4516 101.963 39.9678C101.963 34.1613 98.0726 27.9678 89.2542 27.9678ZM89.1245 48.742H87.0496C87.4387 46.8065 87.5684 44.6129 87.5684 41.5162V32.0968C87.5684 32.0968 88.7355 32.0968 89.5136 32.0968C92.6259 32.0968 95.3492 34.8065 95.3492 39.9678C95.3492 44.3549 93.7931 48.742 89.1245 48.742Z" fill="#34271E"/>
<path d="M113.633 48.7418H109.743C109.872 47.1934 110.002 45.387 110.002 43.0644V42.2902H111.947C113.763 42.2902 115.319 42.4193 116.875 42.8064V37.9031C115.319 38.2902 113.763 38.4193 111.947 38.4193H110.002V32.2257H112.985C114.8 32.2257 116.356 32.3547 117.913 32.7418V28.0967H103.648V43.1934C103.648 47.7096 103.388 50.2902 102.48 52.9999H118.691V48.3547C117.134 48.4838 115.578 48.7418 113.633 48.7418Z" fill="#34271E"/>
</svg>
