<svg width="145" height="45" viewBox="0 0 145 45" fill="none" xmlns="http://www.w3.org/2000/svg">
<path fill-rule="evenodd" clip-rule="evenodd" d="M0.0164309 45C56.8004 15.1868 121.192 21.4222 143.562 35.3553C144.843 36.1768 144.383 36.7519 143.899 37.4173C143.414 38.0828 139.553 41.7057 139.052 42.1575C138.551 42.6094 138.329 42.2068 137.606 41.7632C136.603 41.1649 135.537 40.68 134.426 40.3173C135.708 41.0403 136.825 41.8207 136.267 42.3794C135.708 42.938 135.149 42.4862 133.145 41.4264C125.398 37.253 106.289 31.9542 75.9173 31.7324C104.276 30.3933 116.041 34.353 124.897 36.9162C113.248 32.9072 78.8912 26.7211 46.0302 33.8519C74.3975 26.2199 107.554 30.3933 121.2 33.0304C108.22 29.7443 72.278 23.78 32.2696 35.6511C69.7723 24.3961 98.7476 28.0191 115.466 30.6315C83.6512 23.4751 50.4012 26.3449 20.2835 38.8468C22.403 37.7952 36.714 32.3896 39.1211 31.5516C33.4937 32.6689 19.9549 38.0171 16.6688 38.5757C12.3147 39.2986 6.96655 41.5825 0 44.9836L0.0164309 45ZM139.553 34.4106C139.166 34.1295 138.732 33.9208 138.271 33.7944C104.589 19.9763 64.7692 24.0429 44.2064 29.8429C66.6094 24.9137 89.8997 23.435 111.465 27.0004C117.15 27.9451 124.116 29.465 138.164 34.1312C138.609 34.3008 139.078 34.3952 139.553 34.4106Z" fill="#D24A43"/>
<path fill-rule="evenodd" clip-rule="evenodd" d="M126.678 10.4467H126.62C126.579 10.4393 126.542 10.4192 126.513 10.3892C126.395 10.3346 126.263 10.3163 126.134 10.3368C126.006 10.3572 125.886 10.4155 125.791 10.5042C125.646 10.6474 125.532 10.8177 125.454 11.0054C125.454 11.0629 125.289 11.1697 125.289 11.1697V11.2847C125.218 11.3469 125.16 11.4222 125.117 11.5065C125.059 11.564 125.059 11.6215 125.01 11.7283C124.961 11.8351 124.895 11.7858 124.895 11.8433C124.836 11.9033 124.798 11.9814 124.788 12.0652L124.558 12.287V12.402H124.476C124.476 12.402 124.476 12.5088 124.419 12.5088H124.361L124.197 12.8456C123.975 13.1249 122.915 14.4065 122.414 14.1847C122.299 14.1272 122.299 13.8479 122.299 13.6836C122.334 13.3699 122.429 13.0659 122.578 12.7881C122.578 12.7306 122.636 12.6731 122.636 12.6238C122.636 12.5745 122.636 12.5663 122.693 12.5088H122.743C122.765 12.4319 122.795 12.3576 122.833 12.287C122.891 12.287 122.833 12.287 122.833 12.2295C122.877 12.2237 122.917 12.2034 122.948 12.1719L123.055 12.0076V11.9501C123.055 11.9349 123.061 11.9203 123.072 11.9095C123.082 11.8987 123.097 11.8926 123.112 11.8926C123.17 11.8433 123.17 11.7283 123.227 11.6708C123.285 11.6133 123.334 11.564 123.334 11.5065C123.334 11.449 123.392 11.449 123.392 11.3915C123.392 11.334 123.507 11.2272 123.556 11.1697C123.638 11.0513 123.691 10.9153 123.711 10.7726C123.731 10.6299 123.717 10.4845 123.671 10.3482C123.635 10.2884 123.586 10.2375 123.528 10.1991C123.469 10.1608 123.403 10.1359 123.334 10.1263C123.214 10.1119 123.092 10.1243 122.977 10.1627C122.861 10.201 122.756 10.2644 122.669 10.3482L122.611 10.4057H122.554C122.549 10.4498 122.529 10.4907 122.496 10.5207C122.213 10.7928 121.954 11.0897 121.724 11.4079C121.013 12.2932 120.23 13.1176 119.383 13.8725C119.21 14.045 118.881 14.3243 118.561 14.1025V14.045H118.504V13.6507C118.559 13.223 118.689 12.8085 118.89 12.4266C118.947 12.3691 119.062 12.2623 119.062 12.2048C119.081 12.1821 119.095 12.1558 119.103 12.1276C119.112 12.0994 119.115 12.0698 119.111 12.0405L119.284 11.868C119.316 11.841 119.337 11.8028 119.342 11.7612C119.448 11.6462 119.563 11.4819 119.67 11.3668C119.777 11.2518 119.728 11.2025 119.785 11.0875L119.843 11.0382C119.898 10.9284 119.917 10.8037 119.896 10.6825C119.875 10.5612 119.816 10.4498 119.728 10.3646C119.667 10.3141 119.595 10.2782 119.518 10.2597C119.441 10.2411 119.361 10.2405 119.284 10.2578C119.215 10.2712 119.154 10.3092 119.111 10.3646L118.446 10.5289C118.356 10.5602 118.257 10.5602 118.167 10.5289C118.224 10.3071 118.446 10.0853 118.446 9.80595C118.446 9.52663 118.389 9.08301 118.109 8.98443C117.288 8.82012 116.778 9.80595 116.721 10.4385C116.663 10.7671 116.778 11.1615 116.663 11.3833H116.606V11.5476C116.548 11.6051 116.442 11.7201 116.442 11.7694C116.442 11.8187 116.442 11.8269 116.442 11.8844C116.442 11.9419 116.327 11.8844 116.327 11.9419C116.327 11.9994 116.277 12.0487 116.22 12.1062C116.22 12.1215 116.214 12.1361 116.203 12.1469C116.192 12.1577 116.177 12.1637 116.162 12.1637C116.117 12.2623 116.062 12.3559 115.998 12.4431C115.878 12.6519 115.725 12.8405 115.546 13.0017C115.546 13.0592 115.439 13.1085 115.382 13.166V13.2235H115.324C115.267 13.281 115.102 13.5603 115.045 13.5603H114.996V13.6096C114.853 13.7155 114.702 13.8089 114.544 13.8889C114.402 13.9465 114.242 13.9465 114.1 13.8889C114.041 13.8447 113.995 13.7857 113.966 13.7179C113.937 13.6501 113.927 13.5759 113.936 13.5028V13.3878L114.1 13.2235C114.133 13.1935 114.153 13.1526 114.158 13.1085C114.215 13.1085 114.215 13.0592 114.264 13.0592C114.27 13.0155 114.291 12.975 114.322 12.9442C114.355 12.9142 114.375 12.8733 114.38 12.8292L114.716 12.5006C115.045 12.0487 115.768 10.8575 115.538 10.1017C115.48 9.93739 115.423 9.76487 115.259 9.76487C114.199 9.54306 113.303 11.4983 113.024 12.2787C113 12.5578 112.945 12.8333 112.86 13.1003C112.745 13.4371 111.964 14.3326 111.463 14.0532C111.375 13.9019 111.338 13.7263 111.356 13.5521C111.43 12.928 111.659 12.3322 112.022 11.8187C112.137 11.7119 112.137 11.5969 112.244 11.4901C112.337 11.3109 112.45 11.1428 112.58 10.9889C112.585 10.9449 112.605 10.9039 112.638 10.8739L112.695 10.8164C112.843 10.6775 112.955 10.5058 113.024 10.3153C113.067 10.2196 113.089 10.1161 113.089 10.0113C113.089 9.90661 113.067 9.80305 113.024 9.70737C112.917 9.47734 112.416 9.37054 112.079 9.53485C111.923 9.65648 111.792 9.80711 111.693 9.97847C111.636 10.036 111.463 10.151 111.356 10.2578C111.2 10.4717 111.012 10.6601 110.798 10.8164C110.424 11.1179 109.985 11.3288 109.516 11.4326C109.549 11.0572 109.501 10.6792 109.377 10.3237C109.252 9.96815 109.053 9.64322 108.793 9.37054C108.652 9.28356 108.504 9.20933 108.349 9.14873C108.181 9.13718 108.011 9.15384 107.848 9.19802C107.77 9.21017 107.693 9.22942 107.618 9.25553C107.569 9.25553 107.569 9.19802 107.512 9.19802C107.618 8.86941 107.733 8.59009 107.848 8.25326C107.921 8.17199 107.977 8.07704 108.013 7.97395V7.86715H108.046C108.084 7.80002 108.102 7.72258 108.095 7.64533H108.152C108.192 7.57545 108.212 7.49583 108.21 7.41531C108.267 7.36602 108.374 7.251 108.432 7.1935V7.27565C108.432 7.16064 108.547 7.10313 108.604 7.04562C108.662 6.98812 108.653 6.88131 108.711 6.82381L108.875 6.6595C108.875 6.54449 109.105 6.4952 109.155 6.38018V6.32268C109.212 6.32268 109.212 6.32268 109.27 6.26517C109.327 6.20766 109.327 6.15837 109.376 6.10087C109.426 6.04336 109.549 5.93656 109.606 5.82154C109.647 5.79786 109.676 5.75961 109.689 5.71475C109.746 5.65724 109.804 5.59973 109.804 5.54223C109.861 5.39979 109.87 5.24255 109.83 5.09432C109.79 4.94609 109.703 4.81494 109.582 4.7207C109.023 4.44138 108.522 4.9918 108.243 5.27112C108.243 5.32863 108.128 5.38614 108.078 5.44364C108.023 5.58234 107.949 5.71238 107.857 5.82976C107.629 5.97466 107.383 6.08797 107.125 6.16659C106.487 6.32034 105.824 6.33992 105.178 6.2241C104.801 6.1283 104.456 5.93574 104.176 5.66546C103.959 5.47259 103.753 5.26684 103.56 5.04931V4.99181L103.338 4.885C103.278 4.85648 103.212 4.84169 103.145 4.84169C103.078 4.84169 103.012 4.85648 102.952 4.885L102.837 4.94251H102.78C102.722 4.94251 102.722 5.04931 102.673 5.04931C102.572 5.13702 102.498 5.25125 102.458 5.37905C102.419 5.50684 102.417 5.64307 102.451 5.77225C102.451 5.82976 102.558 5.94477 102.558 5.99406C102.666 6.2316 102.798 6.45735 102.952 6.66772V6.77452C103.007 6.84036 103.044 6.91975 103.059 7.00454C103.369 7.64686 103.521 8.35374 103.502 9.06658C102.845 9.30307 102.246 9.67871 101.747 10.1679C101.248 10.657 100.86 11.2481 100.611 11.9008C100.553 12.0159 100.438 12.1309 100.438 12.2377C100.354 12.4539 100.298 12.6805 100.274 12.9113C100.274 12.9606 100.216 13.0756 100.216 13.1331C100.216 13.1906 100.216 13.3549 100.159 13.4617L99.9371 13.6918H99.8878C99.8878 13.7411 99.7727 13.7986 99.7727 13.7986L99.5509 14.0204C99.4079 14.1478 99.2395 14.2437 99.0569 14.3017C98.8743 14.3598 98.6816 14.3787 98.4912 14.3572C98.2118 14.2997 98.1051 14.0779 97.99 13.7986C97.8562 12.6881 97.9885 11.5617 98.3762 10.5125C98.4602 10.3154 98.5182 10.1083 98.5487 9.89632L98.6062 9.84703C98.6555 9.56771 98.7705 9.23088 98.828 8.95156C98.8768 8.80043 98.8807 8.6384 98.8393 8.48508C98.7979 8.33176 98.713 8.19373 98.5948 8.08768C98.4765 7.98164 98.3301 7.91213 98.1732 7.88757C98.0163 7.86301 97.8557 7.88445 97.7107 7.9493C97.1779 8.00496 96.6741 8.21965 96.2648 8.56545C96.1631 8.60401 96.0686 8.65957 95.9855 8.72975V8.78726C95.8705 8.83655 95.8705 8.89406 95.7637 8.95156C95.6569 9.00907 95.6487 9.00907 95.5912 9.06658C95.5337 9.12408 95.4844 9.28839 95.4269 9.28839H95.3694C95.3119 9.28839 95.3119 9.33768 95.3119 9.39519H95.2626C95.2626 9.39519 95.1476 9.56771 95.09 9.56771H95.0325V9.617C95.0325 9.67451 94.9257 9.73201 94.8682 9.78952V9.82238C94.8682 9.87167 94.6464 10.0442 94.6464 10.0935C94.5418 10.2164 94.4484 10.3484 94.3671 10.4878C94.3096 10.5946 94.2028 10.6521 94.0878 10.7671V10.8739L93.981 10.9889C93.9235 11.104 93.9235 11.1533 93.866 11.2683C93.7411 11.4466 93.6285 11.6332 93.5291 11.8269C93.4354 11.9432 93.3605 12.0735 93.3073 12.213V12.287H93.258C93.258 12.287 93.2088 12.402 93.1512 12.402C93.0937 12.402 92.9787 12.4513 92.9294 12.5088C92.8801 12.5663 92.7569 12.6731 92.6501 12.7306H92.5926C92.5351 12.7306 92.4283 12.8456 92.3708 12.8456C92.3133 12.8456 92.0915 12.9524 91.9765 13.0674C91.8614 13.1824 91.8122 13.1824 91.7546 13.1824H91.6971C91.6478 13.1824 91.6479 13.2317 91.5903 13.2317C91.0661 13.5097 90.5158 13.7353 89.9473 13.9054C88.6932 14.2511 87.3739 14.2877 86.1025 14.0122C85.5362 13.8565 85.0059 13.5914 84.5416 13.2317C84.4348 13.1249 84.3773 13.0099 84.2705 12.9031C84.1637 12.7963 84.098 12.7881 84.0405 12.7306C84.0214 12.7081 84.0071 12.6819 83.9986 12.6536C83.9902 12.6253 83.9876 12.5956 83.9912 12.5663C83.8793 12.4711 83.7847 12.3571 83.7119 12.2295C83.2699 11.414 83.111 10.475 83.2601 9.55949C83.3059 8.92501 83.4587 8.30283 83.7119 7.71927C83.8056 7.35422 83.9349 6.99925 84.098 6.6595H84.1555C84.213 6.602 84.213 6.54449 84.2705 6.43769C84.328 6.33089 84.3773 6.32268 84.4348 6.21588C84.9757 5.29852 85.6514 4.4677 86.4394 3.7513C86.5544 3.69379 86.6037 3.58699 86.6612 3.52948C86.6924 3.53318 86.724 3.52995 86.7539 3.52001C86.7837 3.51007 86.8109 3.49367 86.8337 3.47198C86.883 3.41447 86.883 3.36518 86.9405 3.30767C86.998 3.25017 87.0555 3.30767 87.1048 3.25017C87.1541 3.19266 87.1623 3.19266 87.1623 3.14337C87.1623 3.09408 87.3348 3.08586 87.3841 3.02836C87.4334 2.97085 87.4416 2.97085 87.4416 2.91334C87.6142 2.80654 87.7785 2.74904 87.9428 2.64224C88.047 2.58023 88.1412 2.50266 88.2221 2.41221H88.3289V2.36292C88.3588 2.36595 88.389 2.36237 88.4174 2.35243C88.4458 2.34249 88.4717 2.32644 88.4932 2.30541C88.5507 2.30541 88.6082 2.1904 88.6575 2.1904C88.7068 2.1904 88.83 2.13289 88.9368 2.0836V2.02609H88.9943C89.1093 2.02609 89.1586 1.91108 89.2161 1.91108H89.3887C89.4379 1.86179 89.553 1.80428 89.6105 1.74677C89.6165 1.75525 89.6246 1.76216 89.6339 1.76693C89.6431 1.7717 89.6534 1.77418 89.6639 1.77418C89.6743 1.77418 89.6846 1.7717 89.6939 1.76693C89.7032 1.76216 89.7112 1.75525 89.7173 1.74677C89.8094 1.71495 89.8955 1.66773 89.9719 1.60711C90.1937 1.55782 90.3663 1.50032 90.5881 1.44281C90.8099 1.3853 91.0892 1.2785 91.311 1.2785C92.0263 1.12696 92.7608 1.08816 93.4881 1.16349C94.0013 1.17208 94.5094 1.26649 94.9915 1.44281C95.0408 1.50032 95.0983 1.55782 95.1558 1.55782C95.2133 1.55782 95.3201 1.60711 95.3776 1.66462H95.4351C95.4351 1.72213 95.4926 1.66462 95.5419 1.72213C95.6261 1.76556 95.7035 1.8209 95.7719 1.88643V1.94394C95.8206 1.99036 95.876 2.02914 95.9362 2.05896C96.3652 2.59551 96.5997 3.26153 96.6017 3.94846C96.5798 4.19843 96.5245 4.44433 96.4374 4.67962C96.247 5.3644 95.9262 6.00599 95.4926 6.56914C95.4351 6.62664 95.3201 6.73344 95.2133 6.84845V6.90596C95.2133 6.96347 94.9915 7.01276 94.9915 7.12777V7.18528H94.9011C94.7842 7.32802 94.6519 7.45751 94.5068 7.5714H94.4C94.2811 7.6976 94.1489 7.81053 94.0056 7.90822H93.9563C93.9137 7.9636 93.8524 8.00157 93.7838 8.01503C93.7838 8.07253 93.7263 8.01503 93.7263 8.01503C93.7217 8.05742 93.7046 8.09748 93.677 8.13004C93.562 8.18754 93.4552 8.29434 93.3402 8.35185C92.7399 8.69484 92.1034 8.97036 91.4425 9.17337C91.1155 9.2653 90.7794 9.32041 90.4402 9.33768C89.6895 9.51552 88.9 9.41938 88.2139 9.06658C87.9112 8.83534 87.6782 8.52509 87.5405 8.16998C87.4028 7.81487 87.3658 7.42865 87.4334 7.05383C87.6552 5.16432 89.6598 3.88274 91.3357 3.4309C91.4425 3.38161 91.5 3.43091 91.6643 3.38161C91.8286 3.33232 92.2804 3.20909 92.6173 3.1598C92.8924 3.17516 93.1684 3.15584 93.4388 3.10229C93.5376 3.01284 93.6023 2.89184 93.6218 2.75997C93.6413 2.6281 93.6143 2.49356 93.5456 2.37935C93.4388 2.14932 92.8801 2.20683 92.5433 2.26434C92.2065 2.32184 91.7629 2.32184 91.3767 2.37935C91.2525 2.43771 91.1191 2.47385 90.9824 2.48615C90.6789 2.57673 90.3823 2.68931 90.0952 2.82298V2.88048H89.8733L89.7583 2.98728C89.5365 3.10229 89.4215 3.10229 89.2572 3.20909C89.0929 3.31589 89.0929 3.32411 88.9779 3.38161C88.9554 3.40074 88.9292 3.41499 88.9009 3.42348C88.8726 3.43196 88.8429 3.43449 88.8136 3.4309C88.7561 3.48841 88.8136 3.54592 88.7561 3.54592C88.6986 3.54592 88.5918 3.60342 88.4768 3.66093H88.5343V3.71022C87.4493 4.3739 86.6013 5.36281 86.1108 6.53627C86.0811 6.67683 86.0254 6.81058 85.9465 6.93061C85.7247 7.71206 85.7247 8.53979 85.9465 9.32125C86.0326 9.44544 86.1069 9.57747 86.1683 9.71558C86.1683 9.73084 86.1743 9.74546 86.1851 9.75624C86.1959 9.76703 86.2105 9.77309 86.2258 9.77309C86.4666 10.1323 86.7881 10.4302 87.1648 10.6428C87.5414 10.8553 87.9626 10.9767 88.3946 10.9972C89.3118 11.1206 90.2449 11.045 91.1303 10.7754C91.4096 10.7178 91.6314 10.5535 91.9518 10.496V10.4385C92.0586 10.381 92.1161 10.4385 92.1736 10.381C92.2311 10.3235 92.3379 10.2742 92.4529 10.2167H92.4365C92.5515 10.2167 92.609 10.1017 92.7158 10.1017C92.9093 10.0049 93.0959 9.89512 93.2745 9.77309C93.332 9.77309 93.3895 9.71558 93.447 9.65808C93.8331 9.43627 94.1699 9.27196 94.4985 9.05014C94.6136 8.99264 94.6711 8.82012 94.7779 8.77083C94.8079 8.73821 94.8488 8.71774 94.8929 8.71332C94.9504 8.71332 94.9504 8.65582 94.9504 8.59831C94.9504 8.5408 95.1147 8.54901 95.1722 8.49151C95.3303 8.36874 95.4617 8.21499 95.5583 8.03967C95.6733 7.93287 95.8376 7.81786 95.9526 7.71106C96.0059 7.58643 96.081 7.47234 96.1745 7.37423C96.1745 7.31672 96.2813 7.26743 96.3388 7.20993C96.3963 7.15242 96.3388 7.09491 96.3963 7.09491C96.4538 7.09491 96.4538 7.03741 96.4538 6.98812C96.9356 6.41475 97.2962 5.74959 97.5136 5.03288C97.7748 4.13937 97.7547 3.18711 97.456 2.30541C97.3871 2.12598 97.2931 1.95725 97.1767 1.80428C97.1615 1.80428 97.1468 1.79822 97.1361 1.78744C97.1253 1.77665 97.1192 1.76202 97.1192 1.74677V1.68927C97.0617 1.63176 97.0124 1.63176 97.0124 1.58247L96.7824 1.36065C96.7331 1.24564 96.6181 1.24564 96.5606 1.13063C95.56 0.398702 94.3498 0.00968952 93.1102 0.0215669C92.7383 -0.00718897 92.3648 -0.00718897 91.9929 0.0215669C91.3735 0.0322346 90.7569 0.10656 90.1527 0.243376C89.9884 0.300883 89.7666 0.350179 89.6515 0.407685H89.4872V0.465192H89.2654L89.1504 0.522699C88.9861 0.580206 88.8711 0.580203 88.7643 0.629495C88.4275 0.744509 88.0906 0.908817 87.8113 1.02383C86.3492 1.59759 85.0351 2.49331 83.9666 3.6445C83.9666 3.69379 83.9173 3.69379 83.8598 3.69379V3.7513C83.6873 3.86631 83.638 4.03061 83.5229 4.14563C83.399 4.24248 83.286 4.35268 83.1861 4.47424C83.0793 4.58925 83.0218 4.75356 82.915 4.86858L82.8575 4.92608C82.8413 4.93915 82.8278 4.95533 82.818 4.97367C82.8081 4.99201 82.802 5.01214 82.8 5.03288C82.7436 5.1225 82.6678 5.19831 82.5782 5.25469C82.4632 5.47651 82.4057 5.59152 82.2989 5.81333H82.2414C81.3191 7.39901 80.8928 9.22452 81.0173 11.0547C81.0498 11.7403 81.2252 12.4117 81.5321 13.0256C81.8391 13.6396 82.271 14.1827 82.8 14.6201C82.8575 14.6201 82.915 14.6776 82.9643 14.7269C83.0084 14.7313 83.0493 14.7518 83.0793 14.7844V14.8419L83.9009 15.1787C83.9083 15.2195 83.9284 15.2569 83.9584 15.2855C84.9895 15.6697 86.0879 15.8402 87.187 15.7867C87.4663 15.7374 87.7456 15.6799 88.0085 15.6224C89.0257 15.4776 90.0198 15.2014 90.966 14.8008C91.0153 14.7433 91.1303 14.694 91.1878 14.6365C91.3428 14.6034 91.4922 14.5481 91.6314 14.4722C92.075 14.2422 92.5762 14.0204 92.9705 13.7986C92.9705 13.8561 92.9705 13.7986 93.0198 13.7986C92.964 14.3063 93.0229 14.8201 93.1923 15.302H93.2498C93.2498 15.417 93.2498 15.4745 93.2991 15.5238C93.3484 15.5731 93.3566 15.5813 93.4141 15.5813V15.6388C93.5106 15.6876 93.6039 15.7425 93.6934 15.8031C94.6382 16.0824 95.5337 15.0802 95.9198 14.6365C96.0318 14.5196 96.1259 14.3867 96.1991 14.2422C96.2154 14.1588 96.2553 14.0818 96.3141 14.0204H96.3634C96.4249 14.2568 96.5189 14.4835 96.6427 14.694C96.7002 14.8008 96.6427 14.8583 96.7002 14.9158C96.7439 14.9216 96.7844 14.9419 96.8153 14.9734C96.8645 15.0226 96.8645 15.0802 96.9221 15.1377C96.9221 15.1529 96.9281 15.1675 96.9389 15.1783C96.9497 15.1891 96.9643 15.1952 96.9796 15.1952C97.0371 15.1952 96.9796 15.2445 97.0371 15.2445L97.2014 15.417C97.4648 15.5807 97.7606 15.6853 98.0684 15.7236C98.3762 15.7619 98.6886 15.733 98.9841 15.6388C99.425 15.387 99.8528 15.1128 100.266 14.8173C100.318 15.0628 100.437 15.289 100.61 15.4707C100.784 15.6524 101.004 15.7825 101.247 15.8464C101.489 15.9102 101.745 15.9055 101.985 15.8325C102.225 15.7596 102.441 15.6215 102.607 15.4334C102.877 15.1866 103.119 14.9111 103.33 14.6119C103.422 14.3958 103.534 14.1895 103.667 13.9957C104.324 12.8014 104.698 11.4718 104.759 10.1099C104.809 9.38697 104.809 8.66403 104.809 8.04788C104.767 7.88421 104.751 7.71532 104.759 7.54675C105.199 7.62448 105.646 7.64382 106.09 7.60426C106.37 7.60426 106.649 7.54675 106.871 7.54675C106.886 7.54675 106.901 7.55281 106.911 7.5636C106.922 7.57438 106.928 7.58901 106.928 7.60426L106.821 7.71927C106.83 7.81599 106.81 7.91302 106.764 7.99859C106.76 8.02699 106.747 8.05318 106.726 8.07267C106.705 8.09216 106.678 8.10373 106.649 8.10539C106.553 8.3728 106.479 8.64754 106.427 8.92692C106.37 8.98443 106.32 9.04193 106.32 9.09122C106.32 9.14051 106.32 9.20624 106.263 9.26374C106.205 9.48555 106.09 9.70737 106.041 9.87167C105.647 11.3751 104.866 14.6119 106.205 15.5566L106.263 15.6141C106.32 15.6717 106.32 15.6141 106.37 15.6141C106.419 15.6141 106.485 15.7292 106.542 15.7785C106.707 15.8328 106.882 15.8514 107.055 15.833C107.228 15.8146 107.394 15.7596 107.544 15.6717C108.086 15.3587 108.499 14.8639 108.711 14.2751C108.768 14.2175 108.883 14.1108 108.883 13.9957V13.93C108.933 13.8725 109.048 13.7575 109.048 13.7082C109.105 13.5357 109.212 13.3714 109.27 13.2071V12.9278H109.327C109.545 12.8649 109.752 12.7708 109.943 12.6484C110.05 12.6484 110.165 12.5334 110.272 12.4759C110.387 12.5334 110.272 12.7552 110.272 12.8127C109.952 13.5084 109.854 14.2859 109.993 15.0391C109.993 15.1541 110.108 15.2116 110.165 15.3184C110.223 15.4252 110.165 15.3184 110.165 15.3759H110.214C110.272 15.3759 110.272 15.4909 110.272 15.5402C111.093 16.2714 112.391 15.2116 112.835 14.8173C112.951 15.0901 113.121 15.3361 113.336 15.5402C113.351 15.5402 113.366 15.5463 113.377 15.557C113.388 15.5678 113.394 15.5825 113.394 15.5977C113.516 15.6622 113.65 15.7013 113.788 15.7127C114.03 15.7553 114.279 15.7355 114.511 15.6552C114.718 15.5352 114.906 15.3858 115.07 15.2116H115.119C115.17 15.1329 115.228 15.0587 115.291 14.9898C115.627 14.6512 115.925 14.2765 116.179 13.8725C116.288 13.7751 116.382 13.6615 116.458 13.5357C116.458 13.5204 116.464 13.5058 116.475 13.495C116.486 13.4842 116.5 13.4782 116.515 13.4782C116.515 13.3714 116.622 13.3139 116.622 13.2564C116.622 13.1989 116.622 13.2071 116.68 13.1496C116.742 12.9986 116.837 12.8638 116.959 12.7552C117.017 12.5909 117.296 11.9337 117.46 11.9337V11.8844H117.74C117.855 11.8844 118.019 11.7694 118.183 11.8269C118.347 11.8844 118.183 11.8844 118.183 11.8844C118.183 11.8844 118.298 11.8844 118.298 11.9337C118.298 11.983 118.241 11.9337 118.241 11.9912C118.211 11.9876 118.18 11.9909 118.152 12.0009C118.123 12.0108 118.098 12.0272 118.076 12.0487C117.961 12.1062 117.855 12.4431 117.797 12.5498C117.403 13.3714 116.852 14.6694 117.518 15.5073C117.578 15.581 117.655 15.6394 117.742 15.6779C117.829 15.7164 117.924 15.734 118.019 15.7292C118.181 15.7868 118.358 15.7868 118.52 15.7292C118.668 15.7224 118.809 15.661 118.914 15.5566V15.5073C118.944 15.5104 118.974 15.5068 119.003 15.4969C119.031 15.4869 119.057 15.4709 119.079 15.4498C119.227 15.3878 119.359 15.2922 119.465 15.1705C119.637 15.0062 119.802 14.9487 119.966 14.7762L120.081 14.6694H120.138C120.138 14.6119 120.418 14.3901 120.418 14.3326C120.418 14.2751 120.525 14.2258 120.525 14.1683H120.64C120.734 13.9938 120.866 13.8423 121.026 13.7246C120.968 14.0639 120.941 14.4075 120.943 14.7515C120.951 14.8708 120.988 14.9864 121.05 15.0884C121.05 15.1459 120.993 15.1459 121.05 15.2034L121.108 15.2527C121.165 15.3102 121.108 15.3677 121.165 15.3677C121.223 15.3677 121.272 15.4827 121.33 15.532C121.39 15.5924 121.467 15.6326 121.551 15.647C121.789 15.7071 122.039 15.7022 122.275 15.6329C122.51 15.5635 122.723 15.4322 122.891 15.2527C123.006 15.2034 123.055 15.2034 123.112 15.1459V15.0884C123.264 15.0274 123.399 14.9317 123.507 14.809C123.589 14.7672 123.664 14.7116 123.728 14.6447C123.778 14.5872 123.728 14.5297 123.778 14.5297H123.893C123.778 14.7515 123.671 14.9816 123.556 15.2034C123.441 15.4252 123.507 15.3677 123.449 15.4252L123.392 15.4827C123.399 15.5611 123.379 15.6396 123.334 15.7045L123.277 15.762V15.8113L123.227 15.8688C123.17 15.9263 123.17 16.0331 123.112 16.0906C123.055 16.1481 123.006 16.2632 122.948 16.37C122.792 16.6311 122.66 16.9061 122.554 17.1915C122.447 17.4133 122.168 17.8076 122.225 18.1362C122.304 18.3857 122.436 18.6154 122.611 18.8099C122.711 18.9666 122.824 19.1149 122.948 19.2535C122.975 19.2214 123.013 19.2009 123.055 19.196C123.192 18.7763 123.359 18.3672 123.556 17.9719C123.618 17.7813 123.692 17.5947 123.778 17.4133C123.835 17.3065 123.95 17.134 124.008 17.0272C124.036 16.9037 124.092 16.7885 124.172 16.6903C124.204 16.6595 124.224 16.619 124.23 16.5753V16.3946H124.287C124.388 16.2333 124.478 16.0659 124.558 15.8935V15.7785L124.616 15.7292C124.788 15.5566 124.788 15.3348 124.895 15.113C124.953 15.0555 125.117 14.9487 125.117 14.8337V14.7515H125.174C125.289 14.5872 125.289 14.4229 125.396 14.2504C125.503 14.0779 125.569 13.9711 125.618 13.8643C125.686 13.7377 125.744 13.6058 125.791 13.47C125.791 13.47 125.897 13.3632 125.897 13.3057V13.2481L125.955 13.1989C126.012 13.0838 126.177 12.862 126.177 12.747V12.6895L126.234 12.6402C126.291 12.5784 126.328 12.5012 126.341 12.4184C126.398 12.3034 126.398 12.1884 126.456 12.1391L126.513 12.0816C126.596 11.9187 126.671 11.7514 126.735 11.5804C126.864 11.215 126.843 10.8135 126.678 10.4632V10.4467ZM97.4232 9.82238C97.2896 10.2063 97.1219 10.5775 96.9221 10.9314C96.7577 11.2683 96.5852 11.6051 96.4209 11.9337C96.3526 12.0181 96.2972 12.1123 96.2566 12.213L96.1991 12.2705C96.1416 12.328 96.1991 12.3855 96.1416 12.3855C96.0841 12.3855 96.0348 12.5498 95.9773 12.6566C95.9198 12.7634 95.9198 12.8292 95.8623 12.8867C95.8048 12.9442 95.6405 13.166 95.5255 13.2728V13.3303C95.5255 13.3878 95.4762 13.3878 95.4187 13.4371C95.3503 13.5215 95.2949 13.6157 95.2544 13.7164C95.1968 13.7739 95.0818 13.8314 95.0243 13.8889V13.93C94.9298 14.0024 94.8147 14.0427 94.6957 14.045C94.6382 14.045 94.6382 13.9875 94.6382 13.93C94.3589 13.6589 94.5807 13.1085 94.6957 12.821C94.9464 11.6052 95.5936 10.5072 96.5359 9.69915C96.7002 9.58414 96.8645 9.36233 97.0864 9.36233C97.3082 9.36233 97.4807 9.58414 97.4232 9.81416V9.82238ZM102.944 12.7717C102.829 12.936 102.829 13.051 102.714 13.2153C102.599 13.3796 101.942 14.4476 101.605 14.0368C101.46 13.7649 101.419 13.4495 101.49 13.1496C101.584 12.2414 102.022 11.4036 102.714 10.8082C102.771 10.8082 102.771 10.7507 102.829 10.6932C102.938 10.646 103.051 10.6075 103.166 10.5782C103.223 10.5289 103.33 10.4139 103.445 10.4139H103.494C103.449 11.2205 103.263 12.013 102.944 12.7552V12.7717ZM107.339 14.1108C107.265 14.1313 107.188 14.1368 107.111 14.1269C107.035 14.117 106.962 14.092 106.895 14.0532V14.0122C106.893 13.9845 106.882 13.9584 106.862 13.9388C106.842 13.9192 106.816 13.9073 106.789 13.9054C106.738 13.7605 106.718 13.6065 106.731 13.4535C106.642 12.7374 106.738 12.0104 107.01 11.3422C107.068 11.2272 107.068 11.1204 107.117 11.0629C107.117 11.0476 107.123 11.033 107.134 11.0222C107.145 11.0114 107.159 11.0054 107.175 11.0054C107.29 10.8411 107.397 10.611 107.676 10.611C107.746 10.6007 107.818 10.6057 107.886 10.6255C107.954 10.6454 108.017 10.6797 108.07 10.7261V10.7836L108.119 10.8411C108.162 10.9279 108.182 11.0239 108.177 11.1204C108.177 11.2272 108.234 11.449 108.234 11.5065C108.177 12.2295 107.848 13.9711 107.339 14.1272V14.1108Z" fill="#4D5CA4"/>
<path fill-rule="evenodd" clip-rule="evenodd" d="M42.2572 1.5332H45.7076C45.7479 1.53308 45.7875 1.54281 45.8231 1.56155C45.8587 1.58028 45.8892 1.60744 45.9119 1.64066C45.9346 1.67389 45.9488 1.71216 45.9533 1.75214C45.9578 1.79212 45.9524 1.8326 45.9377 1.87003L45.4365 3.93206C45.4082 4.01826 45.3561 4.09476 45.2864 4.15285C45.2167 4.21095 45.1321 4.24831 45.0422 4.26067H41.5918C41.5526 4.2603 41.514 4.25057 41.4793 4.23229C41.4446 4.21401 41.4147 4.1877 41.3922 4.15556C41.3697 4.12342 41.3552 4.08637 41.3499 4.0475C41.3446 4.00862 41.3487 3.96905 41.3618 3.93206L41.8629 1.87003C41.8629 1.69751 42.0929 1.5332 42.2572 1.5332Z" fill="#D24A43"/>
<path fill-rule="evenodd" clip-rule="evenodd" d="M21.3594 15.7948L24.5387 3.59516C24.2594 3.03652 23.98 2.47789 23.6432 1.95211C26.9868 1.95211 30.3305 1.90282 33.6741 1.90282C42.2015 2.72435 39.6959 14.4393 30.6098 15.8688L21.3594 15.7948ZM25.467 13.4535C26.2885 10.3399 27.1101 7.2181 27.8659 4.03879H31.9735C37.6585 4.37561 35.6539 13.1249 29.9115 13.4535H25.467ZM41.2403 5.98581L41.684 7.2181L39.4165 15.7948H42.5383L45.044 5.98581H41.2403ZM71.4397 1.87817L71.8997 3.20083L68.7286 15.7948H71.8504L75.2433 1.91925L71.4397 1.87817ZM47.1471 5.98581L47.6482 7.2181L45.3233 15.7948H48.4451L50.0882 9.32942C51.0411 8.27787 52.5528 7.82603 54.4916 8.10535C55.0421 7.084 55.8863 6.25124 56.9151 5.7147C55.1899 5.04105 53.0703 5.54218 50.5072 7.77674L51.0083 5.98581H47.1471ZM62.9204 5.6572C66.8145 5.8215 68.8272 7.82603 67.9893 10.841C67.1513 13.856 63.7502 16.2467 59.8561 16.1317C55.9621 16.0167 53.9083 13.93 54.738 10.841C55.5678 7.75209 59.0346 5.43538 62.8794 5.6572H62.9204ZM61.8771 7.35776C63.6598 7.35776 65.0482 8.36002 64.5471 10.8164C64.3118 11.915 63.6777 12.8875 62.7674 13.5459C61.857 14.2044 60.735 14.5022 59.6179 14.3818C57.5559 13.9875 57.2765 12.6484 57.8352 10.7014C58.3938 8.75435 60.0862 7.35776 61.8771 7.35776Z" fill="#4D59A1"/>
</svg>
