<svg width="97" height="25" viewBox="0 0 97 25" fill="none" xmlns="http://www.w3.org/2000/svg">
<path fill-rule="evenodd" clip-rule="evenodd" d="M74.9141 24.9391V11.6896L74.9423 11.0464V10.7404L74.975 10.4344L75.0359 10.1284L75.0641 9.82233L75.1859 9.21029L75.3404 8.62945L75.5261 8.04712L75.7088 7.49747L75.8306 7.22117L75.9524 6.94634L76.1961 6.42492L76.4724 5.93618L76.7799 5.44744L77.0844 4.98693L77.2701 4.7433L77.4528 4.52938L77.7886 4.10007L78.1867 3.70194L78.3694 3.48951L78.5833 3.30382L79.0141 2.93838L79.4405 2.56997L79.8698 2.23424L80.3273 1.92822L80.8176 1.65191L81.3078 1.37709L81.7965 1.13197L82.2867 0.918058L82.8082 0.704142L83.3281 0.551132L83.8466 0.398122L84.3992 0.245113L84.9176 0.15301L85.4688 0.0921029L86.0199 0.0311962L86.571 0H96.8539V9.88324H88.4368L88.1323 9.94563L87.7966 10.0065L87.6421 10.0674L87.4891 10.1284L87.2128 10.2502L87.091 10.3423L86.9691 10.4047L86.7255 10.5874L86.4789 10.8013L86.2962 11.0464L86.1135 11.2915L85.9278 11.5366L85.806 11.8115L85.7451 11.9645L85.6842 12.1175L85.6545 12.2705L85.5906 12.4235L85.5297 12.7295L85.5014 13.0355L85.4688 13.3727V24.9391H74.9141Z" fill="#009AD5"/>
<path fill-rule="evenodd" clip-rule="evenodd" d="M73.3789 10.8934L73.2288 10.8325L73.1041 10.7701L72.9525 10.7092L72.7995 10.6795H63.7734V0H74.6044L75.1556 0.0609068L75.7067 0.121814L76.2549 0.213916L76.806 0.337216L77.3289 0.490225L77.8474 0.643235L78.3673 0.825955L78.8887 1.03987L78.5812 1.22408L78.2767 1.40828L78.0018 1.6222L77.7255 1.83463L77.4507 2.08123L77.1744 2.32486L76.9308 2.56997L76.6842 2.81508L76.4406 3.09139L76.194 3.33502L75.9815 3.61133L75.7676 3.91586L75.5522 4.22188L75.3695 4.49819L75.1838 4.80421L75.0011 5.14142L74.8481 5.44744L74.6653 5.78317L74.389 6.45612L74.1142 7.16026L73.9924 7.49747L73.8988 7.8644L73.8097 8.23133L73.7161 8.59825L73.5631 9.33359L73.5037 9.73023L73.4413 10.0972L73.3789 10.8934Z" fill="#009AD5"/>
<path fill-rule="evenodd" clip-rule="evenodd" d="M21.4805 6.2422L27.2651 0H40.8206L29.131 12.4235L28.458 13.1588L28.1832 13.4634L27.9381 13.7397L27.7242 14.016L27.6023 14.1987L27.5102 14.3814L27.3884 14.5671L27.2963 14.781L27.0512 15.301L26.9888 14.9326L26.8967 14.5671L26.8061 14.2299L26.714 13.8615L26.5907 13.5258L26.4689 13.1885L26.1941 12.5156L25.888 11.8724L25.5508 11.2603L25.1839 10.6483L24.7873 10.0674L24.5719 9.79262L24.3891 9.51631L23.9598 8.99638L23.1027 7.98621L22.2767 7.06816L21.4805 6.2422Z" fill="#009AD5"/>
<path fill-rule="evenodd" clip-rule="evenodd" d="M45.4414 25V12.4844V0H57.3138V12.4844V25H45.4414Z" fill="#009AD5"/>
<path fill-rule="evenodd" clip-rule="evenodd" d="M0 0H13.2806L15.5758 2.47787L17.8397 4.92602L20.1052 7.40537L22.3691 9.88324L22.6751 10.2502L23.0124 10.6795L23.3184 11.1088L23.6541 11.5663L23.9601 12.0878L24.2661 12.6077L24.5425 13.1588L24.8173 13.7397L25.0624 14.3517L25.2763 14.9638L25.4902 15.6367L25.6744 16.2784L25.7962 16.9841L25.9181 17.6852L25.9493 18.0537L25.9804 18.4191L26.0102 18.7875V19.1856V25H14.8107V20.3488L14.7795 19.6447L14.7498 19.0326L14.6874 18.4518L14.6265 17.9318L14.5359 17.4416L14.4438 16.9841L14.3205 16.5548L14.1675 16.1269L13.9848 15.7303L13.8006 15.3619L13.5867 14.9638L13.3416 14.5671L13.0667 14.166L12.7904 13.7397L12.1175 12.8513L0 0Z" fill="#009AD5"/>
</svg>
