<?xml version="1.0" encoding="utf-8"?>
<!-- Generator: Adobe Illustrator 24.2.0, SVG Export Plug-In . SVG Version: 6.00 Build 0)  -->
<svg version="1.1" id="Layer_1" xmlns="http://www.w3.org/2000/svg" xmlns:xlink="http://www.w3.org/1999/xlink" x="0px" y="0px"
	 viewBox="0 0 76 22" style="enable-background:new 0 0 76 22;" xml:space="preserve">
<style type="text/css">
	.st0{fill:#FFFFFF;}
	.st1{fill-rule:evenodd;clip-rule:evenodd;fill:#FFFFFF;}
</style>
<path class="st0" d="M36.2,2.4V19h1.9v-7.1h1.3c1.5,0,2.4,0.6,2.4,2.5V17c0,1.1,0.1,1.5,0.3,2H44c-0.3-0.6-0.3-1.3-0.3-2v-2.6
	c0-1.8-0.6-3-2.1-3.5c1.4-0.5,2.1-1.6,2.1-3.4V6.2c0-2.5-1.1-3.8-3.7-3.8H36.2z M38.1,10.2V4.1h1.8c1.4,0,1.9,0.8,1.9,2.3v1.6
	c0,1.8-0.9,2.3-2.4,2.3H38.1z"/>
<path class="st0" d="M49.1,2.2c-2.5,0-3.7,1.6-3.7,4.2c0,4.7,5.6,5,5.6,8.8c0,1.5-0.6,2.4-2,2.4c-1.3,0-2-0.9-2-2.4v-1h-1.7v1
	c0,2.5,1.2,4.2,3.7,4.2c2.5,0,3.8-1.6,3.8-4.2c0-4.7-5.6-5-5.6-8.8c0-1.5,0.6-2.4,1.9-2.4c1.3,0,1.9,0.9,1.9,2.4v0.5h1.8V6.4
	C52.8,3.9,51.6,2.2,49.1,2.2z"/>
<path class="st0" d="M54.4,2.4V19h1.9V2.4H54.4z"/>
<path class="st0" d="M58.1,15c0,2.5,1.3,4.2,3.8,4.2c2.6,0,3.8-1.7,3.8-4.2V6.4c0-2.5-1.3-4.2-3.8-4.2c-2.5,0-3.8,1.6-3.8,4.2V15z
	 M59.9,6.3c0-1.5,0.6-2.4,2-2.4c1.4,0,2,0.9,2,2.4v8.8c0,1.5-0.6,2.4-2,2.4c-1.3,0-2-0.9-2-2.4V6.3z"/>
<path class="st0" d="M67.4,2.4V19h3.9c2.6,0,3.8-1.6,3.8-4.1V6.5c0-2.6-1.2-4.1-3.8-4.1H67.4z M69.3,17.3V4.1h2c1.4,0,2,0.8,2,2.4
	V15c0,1.5-0.6,2.4-2,2.4H69.3z"/>
<path class="st0" d="M29.1,0h0.6v22h-0.6V0z"/>
<path class="st0" d="M1.2,0h1.2v22H1.2V0z"/>
<path class="st0" d="M0,20.8l0-1.2h22.6v1.2H0z"/>
<path class="st1" d="M20.3,4.6c0.2,0.2,0.2,0.6,0,0.8l-6.1,6.1l-3.9-3.6l-5.8,5c-0.2,0.2-0.6,0.2-0.8-0.1c-0.2-0.2-0.2-0.6,0.1-0.8
	l6.6-5.7l3.8,3.5l5.2-5.2C19.7,4.4,20.1,4.4,20.3,4.6z"/>
<path class="st0" d="M3.8,14c0-0.3,0.3-0.6,0.6-0.6h1.8c0.3,0,0.6,0.3,0.6,0.6v4.4c0,0.3-0.3,0.6-0.6,0.6H4.4
	c-0.3,0-0.6-0.3-0.6-0.6V14z"/>
<path class="st0" d="M13.2,14c0-0.3,0.3-0.6,0.6-0.6h1.8c0.3,0,0.6,0.3,0.6,0.6v4.4c0,0.3-0.3,0.6-0.6,0.6h-1.8
	c-0.3,0-0.6-0.3-0.6-0.6V14z"/>
<path class="st0" d="M8.5,10.3c0-0.3,0.3-0.6,0.6-0.6h1.8c0.3,0,0.6,0.3,0.6,0.6v8.1c0,0.3-0.3,0.6-0.6,0.6H9.1
	c-0.3,0-0.6-0.3-0.6-0.6V10.3z"/>
<path class="st0" d="M18,9.5c0-0.3,0.3-0.6,0.6-0.6h1.8c0.3,0,0.6,0.3,0.6,0.6v8.9c0,0.3-0.3,0.6-0.6,0.6h-1.8
	c-0.3,0-0.6-0.3-0.6-0.6V9.5z"/>
</svg>
