<svg width="32" height="32" viewBox="0 0 32 32" fill="none" xmlns="http://www.w3.org/2000/svg">
<path fill-rule="evenodd" clip-rule="evenodd" d="M26.001 29H25.831C6.18103 27.87 3.39103 11.29 3.00103 6.23001C2.93684 5.39532 3.22434 4.57178 3.79406 3.95839C4.36377 3.34499 5.16388 2.99755 6.00103 3.00001H11.271C12.0906 2.99922 12.8278 3.49857 13.131 4.26001L14.651 8.00001C14.9502 8.74316 14.777 9.59311 14.211 10.16L12.081 12.31C12.7598 16.1844 15.7885 19.221 19.661 19.91L21.831 17.76C22.4065 17.2002 23.261 17.0387 24.001 17.35L27.771 18.86C28.5207 19.1727 29.0068 19.9078 29.001 20.72V26C29.001 27.6569 27.6579 29 26.001 29ZM6.00098 5.00001C5.7213 4.99912 5.45403 5.11538 5.26401 5.3206C5.074 5.52582 4.9786 5.80123 5.00098 6.08001C5.46098 12 8.41098 26 25.941 27C26.2164 27.0166 26.4865 26.9186 26.6872 26.7292C26.8879 26.5398 27.0015 26.276 27.001 26V20.72L23.231 19.21L20.361 22.06L19.881 22C11.181 20.91 10.001 12.21 10.001 12.12L9.94098 11.64L12.781 8.77001L11.281 5.00001H6.00098Z" fill="#782A48"/>
<mask id="mask0_322:665" style="mask-type:alpha" maskUnits="userSpaceOnUse" x="2" y="3" width="27" height="26">
<path fill-rule="evenodd" clip-rule="evenodd" d="M26.001 29H25.831C6.18103 27.87 3.39103 11.29 3.00103 6.23001C2.93684 5.39532 3.22434 4.57178 3.79406 3.95839C4.36377 3.34499 5.16388 2.99755 6.00103 3.00001H11.271C12.0906 2.99922 12.8278 3.49857 13.131 4.26001L14.651 8.00001C14.9502 8.74316 14.777 9.59311 14.211 10.16L12.081 12.31C12.7598 16.1844 15.7885 19.221 19.661 19.91L21.831 17.76C22.4065 17.2002 23.261 17.0387 24.001 17.35L27.771 18.86C28.5207 19.1727 29.0068 19.9078 29.001 20.72V26C29.001 27.6569 27.6579 29 26.001 29ZM6.00098 5.00001C5.7213 4.99912 5.45403 5.11538 5.26401 5.3206C5.074 5.52582 4.9786 5.80123 5.00098 6.08001C5.46098 12 8.41098 26 25.941 27C26.2164 27.0166 26.4865 26.9186 26.6872 26.7292C26.8879 26.5398 27.0015 26.276 27.001 26V20.72L23.231 19.21L20.361 22.06L19.881 22C11.181 20.91 10.001 12.21 10.001 12.12L9.94098 11.64L12.781 8.77001L11.281 5.00001H6.00098Z" fill="white"/>
</mask>
<g mask="url(#mask0_322:665)">
</g>
</svg>
