<svg width="32" height="32" viewBox="0 0 32 32" fill="none" xmlns="http://www.w3.org/2000/svg">
<path fill-rule="evenodd" clip-rule="evenodd" d="M16 10.0006C17.6569 10.0006 19 11.3437 19 13.0006C19 14.6574 17.6569 16.0006 16 16.0006C14.3431 16.0006 13 14.6574 13 13.0006C13 11.3437 14.3431 10.0006 16 10.0006V10.0006ZM16 8.00057C13.2386 8.00057 11 10.2391 11 13.0006C11 15.762 13.2386 18.0006 16 18.0006C18.7614 18.0006 21 15.762 21 13.0006C20.9999 10.2392 18.7614 8.00067 16 8.00067V8.00057ZM16 4.00078C20.889 3.92837 24.9145 7.826 25 12.7148C25.0004 14.6017 24.372 16.4349 23.2141 17.9248L23.1806 17.9684L23.1495 18.0138L16 28.4591L8.85 18.0136L8.8189 17.9682L8.7854 17.9246C7.62772 16.4347 6.9995 14.6016 7 12.7149C7.08546 7.8261 11.111 3.92847 16 4.00088V4.00078ZM16 2.00088C10.0051 1.92516 5.08219 6.72011 5 12.7149C5.00239 15.042 5.77607 17.3027 7.2 19.1433L16 32L24.8 19.1433C26.2239 17.3027 26.9976 15.042 27 12.7149C26.9178 6.72011 21.9949 1.92516 16 2.00088Z" fill="#782A48"/>
<mask id="mask0_322:667" style="mask-type:alpha" maskUnits="userSpaceOnUse" x="5" y="2" width="22" height="30">
<path fill-rule="evenodd" clip-rule="evenodd" d="M16 10.0006C17.6569 10.0006 19 11.3437 19 13.0006C19 14.6574 17.6569 16.0006 16 16.0006C14.3431 16.0006 13 14.6574 13 13.0006C13 11.3437 14.3431 10.0006 16 10.0006V10.0006ZM16 8.00057C13.2386 8.00057 11 10.2391 11 13.0006C11 15.762 13.2386 18.0006 16 18.0006C18.7614 18.0006 21 15.762 21 13.0006C20.9999 10.2392 18.7614 8.00067 16 8.00067V8.00057ZM16 4.00078C20.889 3.92837 24.9145 7.826 25 12.7148C25.0004 14.6017 24.372 16.4349 23.2141 17.9248L23.1806 17.9684L23.1495 18.0138L16 28.4591L8.85 18.0136L8.8189 17.9682L8.7854 17.9246C7.62772 16.4347 6.9995 14.6016 7 12.7149C7.08546 7.8261 11.111 3.92847 16 4.00088V4.00078ZM16 2.00088C10.0051 1.92516 5.08219 6.72011 5 12.7149C5.00239 15.042 5.77607 17.3027 7.2 19.1433L16 32L24.8 19.1433C26.2239 17.3027 26.9976 15.042 27 12.7149C26.9178 6.72011 21.9949 1.92516 16 2.00088Z" fill="white"/>
</mask>
<g mask="url(#mask0_322:667)">
</g>
</svg>
