<svg width="49" height="38" viewBox="0 0 49 38" fill="none" xmlns="http://www.w3.org/2000/svg">
<path d="M12.0478 16.543C12.4782 13.2612 15.3625 10.2906 20.6384 7.70201L21.5884 7.23583L17.6934 0.00292969L16.8141 0.451208C5.65711 6.13963 0 14.1787 0 24.3454C0 27.8533 1.10709 30.8829 3.29075 33.3504C5.50504 35.8523 8.19219 37.1209 11.2781 37.1209C14.0509 37.1209 16.4022 36.1278 18.2665 34.1688C20.1186 32.2224 21.0578 29.8049 21.0578 26.9832C21.0578 24.3168 20.1091 21.9405 18.2382 19.9205C16.5881 18.1386 14.5089 17.0052 12.0478 16.543ZM16.8026 32.7595C15.3148 34.3228 13.5077 35.0827 11.2781 35.0827C8.76066 35.0827 6.64314 34.0727 4.80458 31.9952C2.93512 29.8829 2.02632 27.3806 2.02632 24.3453C2.02632 19.6857 3.33085 15.4789 5.90345 11.8419C8.35814 8.37188 12.0398 5.30824 16.8557 2.72619L18.807 6.34957C12.9385 9.44276 9.96509 13.1611 9.96509 17.412V18.3223L10.8642 18.4247C13.2863 18.7005 15.2131 19.6441 16.7555 21.3096C18.2869 22.9631 19.0313 24.8191 19.0313 26.9831C19.0314 29.2941 18.3023 31.1834 16.8026 32.7595Z" fill="#4A1A2C"/>
<path d="M39.5441 16.5463C39.9693 13.2618 42.8299 10.2897 48.0635 7.70082L48.999 7.2381L45.2007 0L44.3127 0.450684C33.1047 6.13882 27.4219 14.1783 27.4219 24.3457C27.4219 27.8558 28.5431 30.8871 30.7544 33.3553C32.9931 35.8541 35.6914 37.1211 38.7748 37.1211C41.5511 37.1211 43.8915 36.1261 45.731 34.1636C47.5548 32.218 48.4795 29.8023 48.4795 26.9834C48.4795 24.3169 47.5309 21.9407 45.6602 19.9207C44.0134 18.1427 41.9593 17.0102 39.5441 16.5463ZM44.2568 32.7654C42.7948 34.325 41.0018 35.0831 38.7748 35.0831C36.2549 35.0831 34.1238 34.0717 32.2597 31.991C30.3677 29.8793 29.4481 27.3786 29.4481 24.3457C29.4481 19.6869 30.7586 15.4808 33.3426 11.8442C35.8082 8.37492 39.5057 5.31176 44.3421 2.73L46.2405 6.3478C40.4142 9.44204 37.4621 13.1611 37.4621 17.4125V18.3207L38.3589 18.4248C40.7312 18.7002 42.6344 19.644 44.1776 21.31C45.7089 22.9634 46.4532 24.8192 46.4532 26.9835C46.4533 29.2974 45.7348 31.1888 44.2568 32.7654Z" fill="#4A1A2C"/>
</svg>
