<svg width="64" height="64" viewBox="0 0 64 64" fill="none" xmlns="http://www.w3.org/2000/svg">
<path d="M62 26H58.326C57.646 23 56.474 20.176 54.832 17.582L57.707 14.707C57.895 14.52 58 14.265 58 14C58 13.735 57.895 13.48 57.707 13.293L50.707 6.293C50.316 5.902 49.684 5.902 49.293 6.293L46.417 9.168C43.823 7.525 40.998 6.353 38 5.674V2C38 1.448 37.553 1 37 1H27C26.447 1 26 1.448 26 2V5.674C23.002 6.353 20.177 7.526 17.583 9.168L14.707 6.293C14.316 5.902 13.684 5.902 13.293 6.293L6.293 13.293C6.105 13.48 6 13.735 6 14C6 14.265 6.105 14.52 6.293 14.707L9.168 17.582C7.525 20.176 6.354 23 5.674 26H2C1.447 26 1 26.448 1 27V37C1 37.552 1.447 38 2 38H5.674C6.354 41 7.526 43.824 9.168 46.418L6.293 49.293C6.105 49.48 6 49.735 6 50C6 50.265 6.105 50.52 6.293 50.707L13.293 57.707C13.684 58.098 14.316 58.098 14.707 57.707L17.583 54.832C20.177 56.475 23.002 57.647 26 58.326V62C26 62.552 26.447 63 27 63H37C37.553 63 38 62.552 38 62V58.326C40.999 57.647 43.824 56.475 46.417 54.832L49.293 57.707C49.684 58.098 50.316 58.098 50.707 57.707L57.707 50.707C57.895 50.52 58 50.265 58 50C58 49.735 57.895 49.48 57.707 49.293L54.832 46.418C56.475 43.824 57.646 41 58.326 38H62C62.553 38 63 37.552 63 37V27C63 26.448 62.553 26 62 26ZM61 36H57.515C57.036 36 56.625 36.339 56.534 36.809C55.889 40.117 54.607 43.205 52.722 45.99C52.453 46.387 52.504 46.919 52.843 47.258L55.586 50L50 55.586L47.257 52.843C46.919 52.504 46.387 52.454 45.989 52.722C43.205 54.606 40.116 55.888 36.808 56.533C36.339 56.625 36 57.036 36 57.515V61H28V57.515C28 57.036 27.661 56.625 27.191 56.534C23.884 55.89 20.795 54.608 18.01 52.723C17.613 52.455 17.082 52.505 16.742 52.844L14 55.586L8.414 50L11.157 47.257C11.496 46.918 11.547 46.386 11.278 45.989C9.393 43.204 8.111 40.115 7.466 36.808C7.375 36.339 6.964 36 6.485 36H3V28H6.485C6.964 28 7.375 27.661 7.466 27.191C8.111 23.883 9.393 20.795 11.278 18.01C11.547 17.613 11.496 17.081 11.157 16.742L8.414 14L14 8.414L16.743 11.157C17.083 11.497 17.613 11.547 18.011 11.278C20.796 9.393 23.885 8.111 27.192 7.467C27.661 7.375 28 6.964 28 6.485V3H36V6.485C36 6.964 36.339 7.375 36.809 7.466C40.116 8.11 43.205 9.392 45.99 11.277C46.387 11.546 46.92 11.496 47.258 11.156L50 8.414L55.586 14L52.843 16.743C52.504 17.082 52.453 17.614 52.722 18.011C54.607 20.796 55.889 23.885 56.534 27.192C56.625 27.661 57.036 28 57.515 28H61V36Z" fill="white"/>
<path d="M32 9C19.317 9 9 19.318 9 32C9 44.682 19.317 55 32 55C44.683 55 55 44.682 55 32C55 19.318 44.683 9 32 9ZM32 53C20.421 53 11 43.58 11 32C11 20.42 20.421 11 32 11C43.579 11 53 20.42 53 32C53 43.58 43.579 53 32 53Z" fill="white"/>
<path d="M39.4143 29H41.0002C41.2663 29 41.5203 28.895 41.7073 28.707L46.7073 23.707C47.0983 23.316 47.0983 22.684 46.7073 22.293L41.7073 17.293C41.3162 16.902 40.6842 16.902 40.2932 17.293L35.2932 22.293C35.1052 22.48 35.0002 22.735 35.0002 23V24.586L32.0003 27.586L29.0003 24.586V23C29.0003 22.735 28.8953 22.48 28.7073 22.293L23.7073 17.293C23.3163 16.902 22.6842 16.902 22.2933 17.293L17.2932 22.293C16.9022 22.684 16.9022 23.316 17.2932 23.707L22.2933 28.707C22.4802 28.895 22.7343 29 23.0003 29H24.5863L27.5863 32L26.0003 33.586L25.7073 33.293C25.3163 32.902 24.6842 32.902 24.2933 33.293L18.0003 39.585C17.3553 40.23 17.0003 41.087 17.0003 42C17.0003 42.913 17.3553 43.77 18.0003 44.414L19.5863 46C20.2323 46.645 21.0893 47 22.0003 47C22.9113 47 23.7693 46.645 24.4143 46L30.7073 39.707C31.0983 39.316 31.0983 38.684 30.7073 38.293L30.4143 38L32.0003 36.414L33.5862 38L33.2932 38.293C32.9022 38.684 32.9022 39.316 33.2932 39.707L39.5862 46C40.2322 46.645 41.0893 47 42.0002 47C42.9112 47 43.7693 46.645 44.4143 46L46.0002 44.415C46.6453 43.77 47.0002 42.913 47.0002 42C47.0002 41.087 46.6453 40.23 46.0002 39.586L39.7073 33.293C39.3162 32.902 38.6842 32.902 38.2932 33.293L38.0002 33.586L36.4143 32L39.4143 29ZM41.0002 19.414L44.5862 23L43.0002 24.586L39.4143 21L41.0002 19.414ZM23.0003 19.414L24.5863 21L21.0003 24.586L19.4143 23L23.0003 19.414ZM25.7073 27.293C25.5203 27.105 25.2663 27 25.0003 27H23.4143L22.4143 26L26.0003 22.414L27.0003 23.414V25C27.0003 25.265 27.1053 25.52 27.2933 25.707L30.5863 29L29.0003 30.586L25.7073 27.293ZM23.0003 44.585C22.4653 45.12 21.5353 45.12 21.0003 44.585L19.4143 43C19.1463 42.733 19.0003 42.378 19.0003 42C19.0003 41.622 19.1463 41.267 19.4143 41L25.0003 35.414L28.5863 39L23.0003 44.585ZM27.4143 35L36.7073 25.707C36.8953 25.52 37.0002 25.265 37.0002 25V23.414L38.0002 22.414L41.5862 26L40.5862 27H39.0002C38.7342 27 38.4802 27.105 38.2932 27.293L29.0003 36.586L27.4143 35ZM44.5862 41C44.8542 41.267 45.0002 41.622 45.0002 42C45.0002 42.378 44.8542 42.733 44.5862 43L43.0002 44.585C42.4653 45.12 41.5352 45.12 41.0002 44.585L35.4143 39L39.0002 35.414L44.5862 41ZM36.5862 35L35.0002 36.586L33.4143 35L35.0002 33.414L36.5862 35Z" fill="white"/>
</svg>
