<svg width="50" height="60" viewBox="0 0 50 60" fill="none" xmlns="http://www.w3.org/2000/svg">
<path d="M49.2789 9.22106L25.3024 0.333061C25.1063 0.260074 24.8905 0.260074 24.6944 0.333061L0.717938 9.22106C0.550682 9.28345 0.406496 9.39548 0.304708 9.54213C0.20292 9.68878 0.148393 9.86305 0.148438 10.0416V25.2741C0.159053 31.4108 1.77707 37.4377 4.84139 42.7546C7.9057 48.0715 12.3094 52.4929 17.6139 55.5786L24.5614 59.6041C24.6948 59.681 24.846 59.7215 24.9999 59.7215C25.1539 59.7215 25.3051 59.681 25.4384 59.6041L32.3854 55.5786C37.6895 52.4926 42.0927 48.071 45.1566 42.7542C48.2204 37.4373 49.8381 31.4105 49.8484 25.2741V10.0416C49.8486 9.86303 49.7941 9.68874 49.6923 9.54207C49.5905 9.39541 49.4462 9.28339 49.2789 9.22106ZM48.0984 25.2741C48.0885 31.104 46.5514 36.8297 43.6404 41.8809C40.7293 46.9321 36.5458 51.1326 31.5064 54.0641L24.9984 57.8356L18.4894 54.0641C13.4502 51.1325 9.26691 46.9319 6.35602 41.8808C3.44514 36.8296 1.90827 31.104 1.89844 25.2741V10.6501L24.9984 2.08656L48.0984 10.6501V25.2741Z" fill="white"/>
<path d="M24.6959 6.55608L6.11738 13.4436C5.94993 13.5057 5.80551 13.6175 5.70352 13.7641C5.60153 13.9107 5.54687 14.085 5.54688 14.2636V25.8881C5.55516 30.8966 6.87539 35.8156 9.37607 40.1552C11.8768 44.4947 15.4707 48.1035 19.7999 50.6221L24.5599 53.3806C24.6931 53.4579 24.8444 53.4985 24.9984 53.4985C25.1524 53.4985 25.3037 53.4579 25.4369 53.3806L30.1964 50.6226C34.5259 48.1041 38.1202 44.4953 40.6212 40.1557C43.1223 35.816 44.4428 30.8969 44.4514 25.8881V14.2636C44.4514 14.085 44.3967 13.9107 44.2947 13.7641C44.1927 13.6175 44.0483 13.5057 43.8809 13.4436L25.3039 6.55608C25.1078 6.4831 24.892 6.4831 24.6959 6.55608ZM42.7029 14.8726V25.8881C42.6946 30.5901 41.4549 35.208 39.1071 39.2819C36.7594 43.3559 33.3855 46.7439 29.3214 49.1086L24.9999 51.6126L20.6789 49.1081C16.6144 46.7438 13.2402 43.356 10.8924 39.2821C8.54449 35.2081 7.30485 30.5902 7.29687 25.8881V14.8726L24.9999 8.30958L42.7029 14.8726Z" fill="white"/>
<path d="M21.4918 18.823V25.494H14.8203C14.5882 25.494 14.3657 25.5862 14.2016 25.7503C14.0375 25.9144 13.9453 26.1369 13.9453 26.369V31.631C13.9453 31.8631 14.0375 32.0856 14.2016 32.2497C14.3657 32.4138 14.5882 32.506 14.8203 32.506H21.4918V39.177C21.4918 39.4091 21.584 39.6316 21.7481 39.7957C21.9122 39.9598 22.1348 40.052 22.3668 40.052H27.6283C27.8604 40.052 28.0829 39.9598 28.247 39.7957C28.4111 39.6316 28.5033 39.4091 28.5033 39.177V32.506H35.1743C35.4064 32.506 35.6289 32.4138 35.793 32.2497C35.9571 32.0856 36.0493 31.8631 36.0493 31.631V26.369C36.0493 26.1369 35.9571 25.9144 35.793 25.7503C35.6289 25.5862 35.4064 25.494 35.1743 25.494H28.5033V18.823C28.5033 18.5909 28.4111 18.3684 28.247 18.2043C28.0829 18.0402 27.8604 17.948 27.6283 17.948H22.3668C22.1348 17.948 21.9122 18.0402 21.7481 18.2043C21.584 18.3684 21.4918 18.5909 21.4918 18.823ZM23.2418 26.369V19.7H26.7533V26.369C26.7533 26.4839 26.7758 26.5977 26.8198 26.7039C26.8637 26.8101 26.9282 26.9066 27.0095 26.9879C27.0907 27.0691 27.1872 27.1336 27.2934 27.1775C27.3996 27.2215 27.5134 27.2441 27.6283 27.244H34.2973V30.756H27.6283C27.5134 30.7559 27.3996 30.7785 27.2934 30.8225C27.1872 30.8664 27.0907 30.9309 27.0095 31.0121C26.9282 31.0934 26.8637 31.1899 26.8198 31.2961C26.7758 31.4023 26.7533 31.5161 26.7533 31.631V38.3H23.2418V31.631C23.2418 31.3989 23.1496 31.1764 22.9855 31.0123C22.8214 30.8482 22.5989 30.756 22.3668 30.756H15.6973V27.244H22.3668C22.5989 27.244 22.8214 27.1518 22.9855 26.9877C23.1496 26.8236 23.2418 26.6011 23.2418 26.369Z" fill="white"/>
</svg>
