<svg width="70" height="70" viewBox="0 0 70 70" fill="none" xmlns="http://www.w3.org/2000/svg">
<path fill-rule="evenodd" clip-rule="evenodd" d="M58.8127 65.8932H20.4918C19.3307 65.892 18.2175 65.4367 17.3964 64.6274C16.5754 63.8181 16.1135 62.7208 16.1122 61.5763C16.1122 61.5763 16.1122 56.1703 16.1122 55.634C16.1122 55.0976 16.5594 54.5612 17.2071 54.5612C17.8549 54.5612 18.302 55.0501 18.302 55.634C18.302 56.2179 18.302 59.4178 18.302 59.4178H61.0025C61.0025 59.4178 61.0025 53.0776 61.0025 52.7321C61.0025 52.3865 61.4069 51.7296 62.0973 51.7296C62.7878 51.7296 63.1922 52.3591 63.1922 52.7321C63.1922 53.105 63.1922 61.5763 63.1922 61.5763C63.1909 62.7208 62.7291 63.8181 61.908 64.6274C61.087 65.4367 59.9738 65.892 58.8127 65.8932ZM60.3611 63.1025C60.7717 62.6978 61.0025 62.1487 61.0025 61.5763H18.302C18.302 62.1487 18.5327 62.6978 18.9434 63.1025C19.354 63.5073 19.911 63.7347 20.4918 63.7347H58.8127C59.3934 63.7347 59.9504 63.5073 60.3611 63.1025Z" fill="white"/>
<path fill-rule="evenodd" clip-rule="evenodd" d="M63.1922 40.8972C63.1922 40.3226 63.1922 8.4236 63.1922 8.4236C63.1909 7.27906 62.7291 6.18177 61.908 5.37246C61.087 4.56315 59.9738 4.10791 58.8127 4.10663H20.4918C19.3307 4.10791 18.2175 4.56315 17.3964 5.37246C16.5754 6.18177 16.1135 7.27906 16.1122 8.4236C16.1122 8.4236 16.1122 13.3796 16.1122 14.1915C16.1122 15.0034 16.6041 15.4387 17.2071 15.4387C17.8101 15.4387 18.302 14.8965 18.302 14.1915C18.302 13.4865 18.302 10.5821 18.302 10.5821H61.0025C61.0025 10.5821 61.0025 40.3442 61.0025 40.8972C61.0025 41.4503 61.4577 41.9828 62.0973 41.9828C62.737 41.9828 63.1922 41.4719 63.1922 40.8972ZM18.9434 6.89732C18.5327 7.30211 18.302 7.85113 18.302 8.4236H61.0025C61.0025 7.85113 60.7717 7.30211 60.3611 6.89732C59.9504 6.49252 59.3934 6.26511 58.8127 6.26511H20.4918C19.911 6.26511 19.354 6.49252 18.9434 6.89732Z" fill="white"/>
<path fill-rule="evenodd" clip-rule="evenodd" d="M15.0163 52.4028H19.3958C19.9766 52.4028 20.5336 52.1753 20.9442 51.7705C21.3549 51.3658 21.5856 50.8167 21.5856 50.2443V19.7557C21.5856 19.1832 21.3549 18.6342 20.9442 18.2294C20.5336 17.8246 19.9766 17.5972 19.3958 17.5972H15.0163C14.4355 17.5972 13.8786 17.8246 13.4679 18.2294C13.0573 18.6342 12.8265 19.1832 12.8265 19.7557V26.7931C11.0965 27.2675 9.57138 28.2869 8.48408 29.6956C7.39677 31.1044 6.80696 32.8251 6.80469 34.5953V35.6745C6.80697 37.4446 7.39677 39.1654 8.48408 40.5741C9.57139 41.9829 11.0965 43.0022 12.8265 43.4766V50.2443C12.8265 50.8167 13.0573 51.3658 13.4679 51.7705C13.8786 52.1753 14.4355 52.4028 15.0163 52.4028ZM8.99445 35.6745V34.5953C8.99445 33.021 9.6289 31.5112 10.7582 30.398C11.8875 29.2848 13.4192 28.6594 15.0163 28.6594V19.7557H19.3958V50.2443H15.0163V41.6103C13.4192 41.6103 11.8875 40.985 10.7582 39.8718C9.6289 38.7586 8.99445 37.2488 8.99445 35.6745Z" fill="white"/>
<path fill-rule="evenodd" clip-rule="evenodd" d="M24.8698 29.199H30.3442C30.6346 29.199 30.9131 29.0853 31.1184 28.8829C31.3237 28.6805 31.4391 28.406 31.4391 28.1197V22.7235C31.4391 22.4373 31.3237 22.1628 31.1184 21.9604C30.9131 21.758 30.6346 21.6443 30.3442 21.6443H24.8698C24.5794 21.6443 24.3009 21.758 24.0956 21.9604C23.8903 22.1628 23.7749 22.4373 23.7749 22.7235V28.1197C23.7749 28.406 23.8903 28.6805 24.0956 28.8829C24.3009 29.0853 24.5794 29.199 24.8698 29.199ZM25.9647 23.8028H29.2493V27.0405H25.9647V23.8028Z" fill="white"/>
<path d="M35.2732 23.8028H57.7183C58.0087 23.8028 58.2872 23.6891 58.4925 23.4867C58.6979 23.2843 58.8132 23.0098 58.8132 22.7235C58.8132 22.4373 58.6979 22.1628 58.4925 21.9604C58.2872 21.758 58.0087 21.6443 57.7183 21.6443H35.2732C34.9828 21.6443 34.7044 21.758 34.499 21.9604C34.2937 22.1628 34.1783 22.4373 34.1783 22.7235C34.1783 23.0098 34.2937 23.2843 34.499 23.4867C34.7044 23.6891 34.9828 23.8028 35.2732 23.8028Z" fill="white"/>
<path d="M57.7183 29.1994H35.2732C34.9828 29.1994 34.7044 29.0857 34.499 28.8833C34.2937 28.6809 34.1783 28.4064 34.1783 28.1202C34.1783 27.8339 34.2937 27.5594 34.499 27.357C34.7044 27.1546 34.9828 27.0409 35.2732 27.0409H57.7183C58.0087 27.0409 58.2872 27.1546 58.4925 27.357C58.6979 27.5594 58.8132 27.8339 58.8132 28.1202C58.8132 28.4064 58.6979 28.6809 58.4925 28.8833C58.2872 29.0857 58.0087 29.1994 57.7183 29.1994Z" fill="white"/>
<path d="M57.7183 34.5953H35.2732C34.9828 34.5953 34.7044 34.4816 34.499 34.2792C34.2937 34.0768 34.1783 33.8023 34.1783 33.516C34.1783 33.2298 34.2937 32.9553 34.499 32.7529C34.7044 32.5505 34.9828 32.4368 35.2732 32.4368H57.7183C58.0087 32.4368 58.2872 32.5505 58.4925 32.7529C58.6979 32.9553 58.8132 33.2298 58.8132 33.516C58.8132 33.8023 58.6979 34.0768 58.4925 34.2792C58.2872 34.4816 58.0087 34.5953 57.7183 34.5953Z" fill="white"/>
<path d="M57.7183 39.9914H35.2732C34.9828 39.9914 34.7044 39.8777 34.499 39.6753C34.2937 39.4729 34.1783 39.1984 34.1783 38.9121C34.1783 38.6259 34.2937 38.3514 34.499 38.149C34.7044 37.9466 34.9828 37.8329 35.2732 37.8329H57.7183C58.0087 37.8329 58.2872 37.9466 58.4925 38.149C58.6979 38.3514 58.8132 38.6259 58.8132 38.9121C58.8132 39.1984 58.6979 39.4729 58.4925 39.6753C58.2872 39.8777 58.0087 39.9914 57.7183 39.9914Z" fill="white"/>
<path d="M57.7183 45.3878H35.2732C34.9828 45.3878 34.7044 45.2741 34.499 45.0717C34.2937 44.8693 34.1783 44.5948 34.1783 44.3085C34.1783 44.0223 34.2937 43.7478 34.499 43.5454C34.7044 43.343 34.9828 43.2293 35.2732 43.2293H57.7183C58.0087 43.2293 58.2872 43.343 58.4925 43.5454C58.6979 43.7478 58.8132 44.0223 58.8132 44.3085C58.8132 44.5948 58.6979 44.8693 58.4925 45.0717C58.2872 45.2741 58.0087 45.3878 57.7183 45.3878Z" fill="white"/>
<path d="M57.7183 50.7839H35.2732C34.9828 50.7839 34.7044 50.6702 34.499 50.4678C34.2937 50.2654 34.1783 49.9909 34.1783 49.7046C34.1783 49.4184 34.2937 49.1439 34.499 48.9415C34.7044 48.7391 34.9828 48.6254 35.2732 48.6254H57.7183C58.0087 48.6254 58.2872 48.7391 58.4925 48.9415C58.6979 49.1439 58.8132 49.4184 58.8132 49.7046C58.8132 49.9909 58.6979 50.2654 58.4925 50.4678C58.2872 50.6702 58.0087 50.7839 57.7183 50.7839Z" fill="white"/>
<path fill-rule="evenodd" clip-rule="evenodd" d="M23.7749 38.9122C23.7749 39.1985 23.8903 39.473 24.0956 39.6754C24.3009 39.8778 24.5794 39.9915 24.8698 39.9915H30.3442C30.6346 39.9915 30.9131 39.8778 31.1184 39.6754C31.3237 39.473 31.4391 39.1985 31.4391 38.9122V33.516C31.4391 33.2298 31.3237 32.9553 31.1184 32.7529C30.9131 32.5505 30.6346 32.4368 30.3442 32.4368H24.8698C24.5794 32.4368 24.3009 32.5505 24.0956 32.7529C23.8903 32.9553 23.7749 33.2298 23.7749 33.516V38.9122ZM25.9647 34.5953H29.2493V37.833H25.9647V34.5953Z" fill="white"/>
<path fill-rule="evenodd" clip-rule="evenodd" d="M23.7749 49.7047C23.7749 49.991 23.8903 50.2655 24.0956 50.4679C24.3009 50.6703 24.5794 50.784 24.8698 50.784H30.3442C30.6346 50.784 30.9131 50.6703 31.1184 50.4679C31.3237 50.2655 31.4391 49.991 31.4391 49.7047V44.3085C31.4391 44.0223 31.3237 43.7478 31.1184 43.5454C30.9131 43.343 30.6346 43.2293 30.3442 43.2293H24.8698C24.5794 43.2293 24.3009 43.343 24.0956 43.5454C23.8903 43.7478 23.7749 44.0223 23.7749 44.3085V49.7047ZM25.9647 45.3878H29.2493V48.6255H25.9647V45.3878Z" fill="white"/>
</svg>
